<svg xmlns="http://www.w3.org/2000/svg" xmlns:xlink="http://www.w3.org/1999/xlink" width="500" zoomAndPan="magnify" viewBox="0 0 375 374.999991" height="500" preserveAspectRatio="xMidYMid meet" version="1.0"><defs><clipPath id="1805187f31"><path d="M 115.058594 105.769531 L 259.980469 105.769531 L 259.980469 250.691406 L 115.058594 250.691406 Z M 115.058594 105.769531 " clip-rule="nonzero"/></clipPath><clipPath id="93563f136e"><path d="M 0 184.246094 L 48.78125 184.246094 L 48.78125 233.027344 L 0 233.027344 Z M 0 184.246094 " clip-rule="nonzero"/></clipPath><clipPath id="f4703d81d6"><path d="M 24.390625 184.246094 C 10.921875 184.246094 0 195.167969 0 208.636719 C 0 222.109375 10.921875 233.027344 24.390625 233.027344 C 37.863281 233.027344 48.78125 222.109375 48.78125 208.636719 C 48.78125 195.167969 37.863281 184.246094 24.390625 184.246094 Z M 24.390625 184.246094 " clip-rule="nonzero"/></clipPath><clipPath id="e833966dd4"><path d="M 326.21875 184.246094 L 375 184.246094 L 375 233.027344 L 326.21875 233.027344 Z M 326.21875 184.246094 " clip-rule="nonzero"/></clipPath><clipPath id="03a6ed90cb"><path d="M 350.609375 184.246094 C 337.136719 184.246094 326.21875 195.167969 326.21875 208.636719 C 326.21875 222.109375 337.136719 233.027344 350.609375 233.027344 C 364.078125 233.027344 375 222.109375 375 208.636719 C 375 195.167969 364.078125 184.246094 350.609375 184.246094 Z M 350.609375 184.246094 " clip-rule="nonzero"/></clipPath><clipPath id="d869bcae52"><path d="M 14.316406 217 L 34.277344 217 L 34.277344 218.523438 L 14.316406 218.523438 Z M 14.316406 217 " clip-rule="nonzero"/></clipPath><clipPath id="3b23379d9b"><path d="M 14.316406 212 L 34.277344 212 L 34.277344 215 L 14.316406 215 Z M 14.316406 212 " clip-rule="nonzero"/></clipPath><clipPath id="26d45b992a"><path d="M 14.316406 207 L 34.277344 207 L 34.277344 210 L 14.316406 210 Z M 14.316406 207 " clip-rule="nonzero"/></clipPath><clipPath id="83aa6312e2"><path d="M 14.316406 203 L 34.277344 203 L 34.277344 205 L 14.316406 205 Z M 14.316406 203 " clip-rule="nonzero"/></clipPath><clipPath id="e5dae0ad4e"><path d="M 14.316406 198.5625 L 27 198.5625 L 27 201 L 14.316406 201 Z M 14.316406 198.5625 " clip-rule="nonzero"/></clipPath><clipPath id="1ca5b3793d"><path d="M 341.410156 214 L 359.632812 214 L 359.632812 222.214844 L 341.410156 222.214844 Z M 341.410156 214 " clip-rule="nonzero"/></clipPath><clipPath id="7b05764f81"><path d="M 342 194.878906 L 359 194.878906 L 359 215 L 342 215 Z M 342 194.878906 " clip-rule="nonzero"/></clipPath></defs><g clip-path="url(#1805187f31)"><path fill="#000000" d="M 187.519531 250.691406 C 227.539062 250.691406 259.980469 218.25 259.980469 178.230469 C 259.980469 138.210938 227.539062 105.769531 187.519531 105.769531 C 147.5 105.769531 115.058594 138.210938 115.058594 178.230469 C 115.058594 218.25 147.5 250.691406 187.519531 250.691406 Z M 152.386719 139.585938 C 150.449219 139.585938 148.875 141.15625 148.875 143.097656 L 148.875 172.960938 C 148.875 174.902344 150.449219 176.472656 152.386719 176.472656 L 182.25 176.472656 C 184.191406 176.472656 185.765625 174.902344 185.765625 172.960938 L 185.765625 143.097656 C 185.765625 141.15625 184.191406 139.585938 182.25 139.585938 Z M 161.171875 148.367188 C 159.230469 148.367188 157.65625 149.941406 157.65625 151.882812 L 157.65625 164.175781 C 157.65625 166.117188 159.230469 167.691406 161.171875 167.691406 L 173.46875 167.691406 C 175.40625 167.691406 176.980469 166.117188 176.980469 164.175781 L 176.980469 151.882812 C 176.980469 149.941406 175.40625 148.367188 173.46875 148.367188 Z M 148.875 183.5 C 148.875 181.558594 150.449219 179.988281 152.386719 179.988281 L 182.25 179.988281 C 184.191406 179.988281 185.765625 181.558594 185.765625 183.5 L 185.765625 213.363281 C 185.765625 215.304688 184.191406 216.875 182.25 216.875 L 152.386719 216.875 C 150.449219 216.875 148.875 215.304688 148.875 213.363281 Z M 157.65625 192.285156 C 157.65625 190.34375 159.230469 188.769531 161.171875 188.769531 L 173.46875 188.769531 C 175.40625 188.769531 176.980469 190.34375 176.980469 192.285156 L 176.980469 204.578125 C 176.980469 206.519531 175.40625 208.09375 173.46875 208.09375 L 161.171875 208.09375 C 159.230469 208.09375 157.65625 206.519531 157.65625 204.578125 Z M 192.789062 139.585938 C 190.851562 139.585938 189.277344 141.15625 189.277344 143.097656 L 189.277344 172.960938 C 189.277344 174.902344 190.851562 176.472656 192.789062 176.472656 L 222.652344 176.472656 C 224.59375 176.472656 226.167969 174.902344 226.167969 172.960938 L 226.167969 143.097656 C 226.167969 141.15625 224.59375 139.585938 222.652344 139.585938 Z M 201.574219 148.367188 C 199.632812 148.367188 198.058594 149.941406 198.058594 151.882812 L 198.058594 164.175781 C 198.058594 166.117188 199.632812 167.691406 201.574219 167.691406 L 213.871094 167.691406 C 215.808594 167.691406 217.382812 166.117188 217.382812 164.175781 L 217.382812 151.882812 C 217.382812 149.941406 215.808594 148.367188 213.871094 148.367188 Z M 191.035156 179.988281 L 222.652344 179.988281 L 222.652344 187.015625 L 191.035156 187.015625 Z M 201.574219 199.308594 L 212.113281 199.308594 L 212.113281 192.285156 L 201.574219 192.285156 Z M 201.574219 213.363281 L 191.035156 213.363281 L 191.035156 206.335938 L 201.574219 206.335938 Z M 212.113281 213.363281 L 222.652344 213.363281 L 222.652344 206.335938 L 212.113281 206.335938 Z M 212.113281 213.363281 " fill-opacity="1" fill-rule="evenodd"/></g><g clip-path="url(#93563f136e)"><g clip-path="url(#f4703d81d6)"><path fill="#000000" d="M 0 184.246094 L 48.78125 184.246094 L 48.78125 233.027344 L 0 233.027344 Z M 0 184.246094 " fill-opacity="1" fill-rule="nonzero"/></g></g><g clip-path="url(#e833966dd4)"><g clip-path="url(#03a6ed90cb)"><path fill="#000000" d="M 326.21875 184.246094 L 375 184.246094 L 375 233.027344 L 326.21875 233.027344 Z M 326.21875 184.246094 " fill-opacity="1" fill-rule="nonzero"/></g></g><g clip-path="url(#d869bcae52)"><path fill="#ffffff" d="M 33.625 218.710938 L 15.15625 218.710938 C 14.691406 218.710938 14.316406 218.335938 14.316406 217.871094 C 14.316406 217.410156 14.691406 217.03125 15.15625 217.03125 L 33.625 217.03125 C 34.089844 217.03125 34.464844 217.410156 34.464844 217.871094 C 34.464844 218.335938 34.089844 218.710938 33.625 218.710938 Z M 33.625 218.710938 " fill-opacity="1" fill-rule="nonzero"/></g><g clip-path="url(#3b23379d9b)"><path fill="#ffffff" d="M 33.625 214.09375 L 15.15625 214.09375 C 14.691406 214.09375 14.316406 213.71875 14.316406 213.253906 C 14.316406 212.792969 14.691406 212.414062 15.15625 212.414062 L 33.625 212.414062 C 34.089844 212.414062 34.464844 212.792969 34.464844 213.253906 C 34.464844 213.71875 34.089844 214.09375 33.625 214.09375 Z M 33.625 214.09375 " fill-opacity="1" fill-rule="nonzero"/></g><g clip-path="url(#26d45b992a)"><path fill="#ffffff" d="M 33.625 209.476562 L 15.15625 209.476562 C 14.691406 209.476562 14.316406 209.101562 14.316406 208.636719 C 14.316406 208.175781 14.691406 207.796875 15.15625 207.796875 L 33.625 207.796875 C 34.089844 207.796875 34.464844 208.175781 34.464844 208.636719 C 34.464844 209.101562 34.089844 209.476562 33.625 209.476562 Z M 33.625 209.476562 " fill-opacity="1" fill-rule="nonzero"/></g><g clip-path="url(#83aa6312e2)"><path fill="#ffffff" d="M 33.625 204.859375 L 15.15625 204.859375 C 14.691406 204.859375 14.316406 204.484375 14.316406 204.019531 C 14.316406 203.554688 14.691406 203.179688 15.15625 203.179688 L 33.625 203.179688 C 34.089844 203.179688 34.464844 203.554688 34.464844 204.019531 C 34.464844 204.484375 34.089844 204.859375 33.625 204.859375 Z M 33.625 204.859375 " fill-opacity="1" fill-rule="nonzero"/></g><g clip-path="url(#e5dae0ad4e)"><path fill="#ffffff" d="M 26.070312 200.242188 L 15.15625 200.242188 C 14.691406 200.242188 14.316406 199.867188 14.316406 199.402344 C 14.316406 198.9375 14.691406 198.5625 15.15625 198.5625 L 26.070312 198.5625 C 26.535156 198.5625 26.910156 198.9375 26.910156 199.402344 C 26.910156 199.867188 26.535156 200.242188 26.070312 200.242188 Z M 26.070312 200.242188 " fill-opacity="1" fill-rule="nonzero"/></g><g clip-path="url(#1ca5b3793d)"><path fill="#ffffff" d="M 359.808594 218.117188 L 359.808594 218.105469 L 359.804688 218.078125 C 359.804688 218.058594 359.804688 218.035156 359.804688 218.011719 C 359.800781 217.992188 359.800781 217.96875 359.800781 217.949219 L 359.796875 217.914062 C 359.796875 217.90625 359.792969 217.894531 359.792969 217.882812 C 359.789062 217.863281 359.785156 217.839844 359.78125 217.820312 C 359.78125 217.808594 359.78125 217.800781 359.777344 217.789062 L 359.769531 217.757812 C 359.765625 217.734375 359.761719 217.714844 359.757812 217.695312 C 359.757812 217.683594 359.753906 217.671875 359.75 217.664062 L 359.742188 217.632812 C 359.699219 217.46875 359.636719 217.316406 359.558594 217.175781 C 359.484375 217.035156 359.394531 216.90625 359.296875 216.789062 C 359.199219 216.671875 359.097656 216.566406 358.992188 216.46875 C 358.882812 216.375 358.773438 216.285156 358.660156 216.199219 C 358.632812 216.179688 358.605469 216.160156 358.574219 216.140625 C 358.546875 216.121094 358.519531 216.101562 358.492188 216.082031 C 358.460938 216.0625 358.433594 216.042969 358.40625 216.027344 C 358.375 216.007812 358.347656 215.988281 358.320312 215.972656 C 358.203125 215.902344 358.089844 215.835938 357.972656 215.773438 C 357.914062 215.742188 357.855469 215.714844 357.796875 215.6875 C 357.769531 215.671875 357.738281 215.660156 357.710938 215.644531 C 357.679688 215.632812 357.652344 215.617188 357.621094 215.605469 C 357.390625 215.496094 357.15625 215.40625 356.929688 215.320312 C 356.699219 215.238281 356.472656 215.167969 356.25 215.101562 C 356.195312 215.085938 356.140625 215.070312 356.085938 215.054688 C 356.027344 215.039062 355.972656 215.023438 355.921875 215.007812 C 355.863281 214.996094 355.8125 214.980469 355.757812 214.96875 C 355.703125 214.953125 355.648438 214.941406 355.59375 214.925781 C 355.167969 214.824219 354.757812 214.746094 354.371094 214.683594 C 354.277344 214.667969 354.183594 214.652344 354.089844 214.636719 C 354.074219 214.664062 354.054688 214.691406 354.035156 214.71875 C 354.140625 214.742188 354.246094 214.761719 354.351562 214.785156 C 354.730469 214.871094 355.132812 214.976562 355.546875 215.109375 C 355.597656 215.125 355.648438 215.140625 355.699219 215.160156 C 355.753906 215.175781 355.804688 215.195312 355.859375 215.210938 C 355.910156 215.230469 355.960938 215.25 356.015625 215.269531 C 356.070312 215.289062 356.121094 215.308594 356.175781 215.328125 C 356.386719 215.410156 356.601562 215.5 356.8125 215.601562 C 357.027344 215.703125 357.242188 215.8125 357.449219 215.933594 C 357.476562 215.949219 357.503906 215.964844 357.53125 215.980469 C 357.554688 216 357.582031 216.011719 357.609375 216.03125 C 357.660156 216.0625 357.710938 216.09375 357.761719 216.128906 C 357.863281 216.199219 357.964844 216.269531 358.0625 216.34375 C 358.085938 216.363281 358.113281 216.382812 358.136719 216.402344 C 358.160156 216.421875 358.183594 216.441406 358.207031 216.460938 C 358.230469 216.480469 358.253906 216.503906 358.277344 216.523438 C 358.300781 216.542969 358.324219 216.5625 358.347656 216.585938 C 358.4375 216.667969 358.527344 216.757812 358.605469 216.847656 C 358.6875 216.941406 358.761719 217.039062 358.824219 217.140625 C 358.890625 217.238281 358.945312 217.34375 358.988281 217.449219 C 359.03125 217.558594 359.0625 217.667969 359.074219 217.777344 L 359.078125 217.796875 C 359.078125 217.800781 359.082031 217.808594 359.082031 217.816406 L 359.082031 217.855469 L 359.085938 217.875 C 359.085938 217.882812 359.085938 217.890625 359.085938 217.898438 L 359.085938 217.9375 C 359.085938 217.945312 359.085938 217.953125 359.085938 217.957031 L 359.085938 218.019531 C 359.085938 218.03125 359.085938 218.011719 359.082031 218.019531 L 359.082031 218.03125 L 359.078125 218.058594 L 359.078125 218.097656 C 359.074219 218.101562 359.074219 218.105469 359.074219 218.109375 C 359.074219 218.121094 359.070312 218.132812 359.070312 218.140625 L 359.066406 218.160156 L 359.0625 218.167969 L 359.0625 218.179688 L 359.050781 218.21875 L 359.042969 218.257812 L 359.03125 218.296875 L 359.027344 218.304688 C 359.027344 218.308594 359.027344 218.3125 359.023438 218.3125 L 359.015625 218.332031 L 359.003906 218.371094 L 358.988281 218.410156 C 358.945312 218.511719 358.886719 218.609375 358.820312 218.707031 C 358.75 218.800781 358.671875 218.890625 358.582031 218.980469 C 358.492188 219.066406 358.398438 219.148438 358.292969 219.226562 C 358.191406 219.304688 358.082031 219.382812 357.964844 219.453125 C 357.851562 219.523438 357.734375 219.589844 357.609375 219.652344 C 357.488281 219.714844 357.363281 219.777344 357.234375 219.832031 L 357.1875 219.855469 L 357.136719 219.875 C 357.105469 219.890625 357.074219 219.902344 357.039062 219.917969 C 357.007812 219.929688 356.976562 219.945312 356.941406 219.957031 C 356.925781 219.964844 356.90625 219.96875 356.890625 219.976562 L 356.839844 219.996094 C 356.773438 220.019531 356.707031 220.046875 356.640625 220.070312 C 356.605469 220.082031 356.570312 220.09375 356.539062 220.105469 C 356.519531 220.109375 356.503906 220.117188 356.488281 220.121094 L 356.433594 220.140625 C 356.296875 220.183594 356.160156 220.226562 356.019531 220.269531 C 355.738281 220.347656 355.449219 220.421875 355.160156 220.484375 C 354.867188 220.550781 354.574219 220.605469 354.273438 220.65625 C 353.679688 220.753906 353.070312 220.824219 352.457031 220.867188 C 351.84375 220.914062 351.226562 220.9375 350.609375 220.9375 C 349.992188 220.9375 349.375 220.914062 348.761719 220.867188 C 348.148438 220.820312 347.542969 220.75 346.945312 220.652344 C 346.351562 220.550781 345.765625 220.425781 345.203125 220.261719 C 345.0625 220.222656 344.921875 220.179688 344.785156 220.132812 L 344.734375 220.117188 C 344.714844 220.113281 344.699219 220.105469 344.683594 220.101562 C 344.648438 220.089844 344.613281 220.074219 344.582031 220.066406 C 344.546875 220.050781 344.511719 220.039062 344.480469 220.027344 C 344.445312 220.015625 344.410156 220.003906 344.378906 219.988281 C 344.34375 219.976562 344.3125 219.964844 344.277344 219.953125 C 344.246094 219.9375 344.210938 219.925781 344.179688 219.910156 C 344.148438 219.898438 344.113281 219.882812 344.082031 219.871094 L 344.035156 219.851562 L 343.984375 219.828125 C 343.953125 219.8125 343.921875 219.800781 343.890625 219.785156 C 343.859375 219.769531 343.828125 219.757812 343.796875 219.742188 C 343.765625 219.726562 343.734375 219.710938 343.703125 219.695312 C 343.671875 219.679688 343.640625 219.664062 343.609375 219.648438 C 343.488281 219.585938 343.367188 219.519531 343.253906 219.449219 C 343.140625 219.378906 343.03125 219.304688 342.929688 219.226562 C 342.824219 219.144531 342.730469 219.0625 342.640625 218.976562 C 342.550781 218.890625 342.472656 218.796875 342.40625 218.703125 C 342.265625 218.515625 342.179688 218.308594 342.148438 218.097656 L 342.140625 218.058594 L 342.140625 218.027344 C 342.136719 218.023438 342.136719 218.042969 342.136719 218.027344 C 342.136719 218.007812 342.136719 217.992188 342.136719 217.972656 L 342.136719 217.949219 C 342.136719 217.941406 342.136719 217.941406 342.136719 217.9375 L 342.136719 217.929688 C 342.136719 217.917969 342.136719 217.90625 342.136719 217.894531 L 342.136719 217.886719 C 342.136719 217.882812 342.136719 217.878906 342.136719 217.875 L 342.136719 217.855469 L 342.140625 217.816406 C 342.140625 217.808594 342.140625 217.800781 342.140625 217.796875 L 342.144531 217.777344 C 342.160156 217.667969 342.1875 217.558594 342.230469 217.453125 C 342.273438 217.34375 342.328125 217.242188 342.394531 217.140625 C 342.460938 217.039062 342.535156 216.945312 342.613281 216.851562 C 342.652344 216.804688 342.695312 216.757812 342.738281 216.714844 C 342.761719 216.695312 342.78125 216.671875 342.804688 216.648438 C 342.828125 216.628906 342.851562 216.609375 342.871094 216.585938 C 342.894531 216.566406 342.917969 216.546875 342.941406 216.523438 C 342.964844 216.503906 342.988281 216.484375 343.011719 216.464844 C 343.035156 216.445312 343.058594 216.421875 343.082031 216.402344 C 343.105469 216.386719 343.132812 216.367188 343.15625 216.347656 C 343.253906 216.273438 343.355469 216.199219 343.457031 216.132812 C 343.507812 216.097656 343.558594 216.0625 343.609375 216.03125 C 343.636719 216.015625 343.664062 216 343.6875 215.984375 C 343.714844 215.96875 343.742188 215.953125 343.769531 215.9375 C 343.976562 215.8125 344.191406 215.703125 344.40625 215.601562 C 344.617188 215.5 344.832031 215.410156 345.042969 215.328125 C 345.097656 215.308594 345.148438 215.289062 345.203125 215.269531 C 345.253906 215.25 345.308594 215.230469 345.359375 215.214844 C 345.414062 215.195312 345.464844 215.175781 345.515625 215.160156 C 345.570312 215.140625 345.621094 215.125 345.671875 215.109375 C 346.085938 214.976562 346.484375 214.871094 346.863281 214.785156 C 346.917969 214.773438 346.96875 214.765625 347.019531 214.753906 C 346.996094 214.722656 346.976562 214.695312 346.957031 214.664062 C 346.917969 214.667969 346.882812 214.675781 346.84375 214.679688 C 346.457031 214.746094 346.050781 214.824219 345.621094 214.925781 C 345.40625 214.976562 345.1875 215.035156 344.964844 215.101562 C 344.746094 215.164062 344.515625 215.238281 344.289062 215.320312 C 344.058594 215.402344 343.828125 215.496094 343.59375 215.601562 C 343.566406 215.613281 343.535156 215.628906 343.507812 215.640625 C 343.476562 215.65625 343.449219 215.667969 343.417969 215.683594 C 343.359375 215.710938 343.300781 215.742188 343.246094 215.773438 C 343.128906 215.832031 343.011719 215.898438 342.898438 215.96875 C 342.867188 215.988281 342.839844 216.003906 342.8125 216.023438 C 342.78125 216.042969 342.753906 216.058594 342.726562 216.078125 C 342.695312 216.097656 342.667969 216.117188 342.640625 216.136719 C 342.613281 216.15625 342.582031 216.175781 342.554688 216.199219 C 342.441406 216.28125 342.332031 216.371094 342.226562 216.46875 C 342.117188 216.566406 342.015625 216.671875 341.917969 216.789062 C 341.820312 216.90625 341.730469 217.03125 341.65625 217.171875 C 341.578125 217.3125 341.515625 217.46875 341.472656 217.632812 L 341.464844 217.664062 C 341.460938 217.671875 341.457031 217.683594 341.457031 217.695312 C 341.453125 217.714844 341.449219 217.734375 341.441406 217.757812 L 341.4375 217.789062 C 341.433594 217.792969 341.433594 217.800781 341.433594 217.804688 L 341.429688 217.824219 C 341.429688 217.84375 341.425781 217.871094 341.421875 217.894531 L 341.417969 217.910156 C 341.417969 217.914062 341.417969 217.921875 341.417969 217.925781 L 341.417969 217.953125 C 341.414062 217.96875 341.414062 217.988281 341.410156 218.003906 C 341.410156 218 341.410156 218.027344 341.410156 218.03125 L 341.410156 218.078125 C 341.410156 218.101562 341.410156 218.121094 341.410156 218.144531 C 341.410156 218.320312 341.4375 218.496094 341.488281 218.664062 C 341.535156 218.832031 341.605469 218.996094 341.6875 219.144531 C 341.773438 219.296875 341.867188 219.4375 341.972656 219.566406 C 342.078125 219.699219 342.191406 219.820312 342.3125 219.933594 C 342.429688 220.050781 342.554688 220.15625 342.683594 220.257812 C 342.8125 220.359375 342.945312 220.453125 343.082031 220.542969 C 343.113281 220.5625 343.148438 220.585938 343.183594 220.609375 C 343.214844 220.628906 343.25 220.652344 343.285156 220.671875 C 343.320312 220.695312 343.355469 220.714844 343.390625 220.734375 C 343.40625 220.746094 343.425781 220.753906 343.441406 220.765625 L 343.496094 220.796875 L 343.546875 220.824219 L 343.601562 220.855469 C 343.636719 220.875 343.671875 220.894531 343.707031 220.914062 C 343.746094 220.933594 343.78125 220.949219 343.816406 220.96875 C 343.851562 220.988281 343.886719 221.003906 343.925781 221.023438 C 343.996094 221.058594 344.070312 221.09375 344.144531 221.128906 C 344.179688 221.144531 344.21875 221.160156 344.253906 221.179688 C 344.273438 221.1875 344.292969 221.195312 344.308594 221.203125 L 344.367188 221.226562 C 344.515625 221.292969 344.664062 221.351562 344.816406 221.410156 C 345.121094 221.527344 345.425781 221.628906 345.738281 221.722656 C 346.050781 221.8125 346.367188 221.898438 346.6875 221.96875 C 347.007812 222.039062 347.332031 222.101562 347.65625 222.15625 C 347.734375 222.167969 347.816406 222.179688 347.898438 222.191406 C 347.980469 222.203125 348.0625 222.214844 348.144531 222.226562 C 348.304688 222.246094 348.46875 222.265625 348.632812 222.285156 C 349.289062 222.351562 349.949219 222.386719 350.609375 222.386719 C 351.269531 222.386719 351.933594 222.351562 352.585938 222.28125 C 352.75 222.265625 352.914062 222.246094 353.078125 222.226562 C 353.160156 222.214844 353.242188 222.203125 353.324219 222.191406 C 353.402344 222.179688 353.484375 222.167969 353.566406 222.152344 C 353.890625 222.101562 354.210938 222.039062 354.53125 221.964844 C 355.171875 221.824219 355.796875 221.640625 356.402344 221.410156 C 356.441406 221.394531 356.480469 221.378906 356.515625 221.363281 C 356.554688 221.347656 356.59375 221.335938 356.628906 221.320312 C 356.667969 221.304688 356.703125 221.289062 356.742188 221.273438 C 356.78125 221.257812 356.816406 221.242188 356.855469 221.222656 L 356.910156 221.199219 C 356.929688 221.191406 356.945312 221.183594 356.964844 221.175781 C 357.003906 221.160156 357.039062 221.140625 357.074219 221.125 C 357.148438 221.089844 357.222656 221.058594 357.292969 221.019531 C 357.441406 220.949219 357.582031 220.875 357.722656 220.792969 C 357.757812 220.773438 357.792969 220.753906 357.828125 220.734375 C 357.863281 220.710938 357.898438 220.691406 357.933594 220.671875 C 357.96875 220.648438 358 220.628906 358.035156 220.605469 C 358.070312 220.585938 358.101562 220.5625 358.136719 220.539062 C 358.40625 220.363281 358.667969 220.160156 358.90625 219.933594 C 359.023438 219.820312 359.136719 219.699219 359.242188 219.566406 C 359.347656 219.4375 359.445312 219.296875 359.527344 219.144531 C 359.609375 218.996094 359.679688 218.835938 359.726562 218.667969 C 359.734375 218.644531 359.742188 218.625 359.746094 218.605469 C 359.75 218.582031 359.757812 218.5625 359.761719 218.539062 L 359.769531 218.507812 L 359.769531 218.492188 L 359.773438 218.476562 C 359.777344 218.453125 359.78125 218.429688 359.785156 218.410156 L 359.789062 218.378906 L 359.792969 218.34375 C 359.796875 218.324219 359.796875 218.300781 359.800781 218.277344 L 359.800781 218.261719 L 359.804688 218.246094 L 359.804688 218.207031 C 359.808594 218.183594 359.808594 218.160156 359.808594 218.136719 C 359.808594 218.128906 359.808594 218.125 359.808594 218.117188 Z M 359.808594 218.117188 " fill-opacity="1" fill-rule="nonzero"/></g><path fill="#ffffff" d="M 350.347656 214.390625 C 350.292969 214.394531 350.226562 214.394531 350.152344 214.394531 C 350.078125 214.398438 349.992188 214.398438 349.898438 214.402344 C 349.808594 214.40625 349.707031 214.410156 349.601562 214.417969 C 349.382812 214.429688 349.132812 214.445312 348.855469 214.472656 C 348.785156 214.480469 348.714844 214.488281 348.640625 214.496094 C 348.566406 214.503906 348.492188 214.511719 348.417969 214.519531 C 348.339844 214.53125 348.261719 214.542969 348.183594 214.550781 C 348.101562 214.5625 348.019531 214.574219 347.9375 214.585938 C 347.742188 214.617188 347.542969 214.652344 347.332031 214.691406 C 348.113281 215.792969 348.839844 216.734375 349.371094 217.390625 C 349.941406 218.101562 350.375 218.605469 350.570312 218.824219 C 350.757812 218.605469 351.179688 218.101562 351.730469 217.394531 C 352.246094 216.730469 352.960938 215.78125 353.726562 214.660156 C 353.574219 214.632812 353.425781 214.609375 353.285156 214.585938 C 353.199219 214.574219 353.117188 214.5625 353.039062 214.550781 C 352.957031 214.539062 352.878906 214.53125 352.804688 214.519531 C 352.726562 214.511719 352.652344 214.503906 352.582031 214.496094 C 352.507812 214.488281 352.4375 214.480469 352.367188 214.472656 C 352.089844 214.445312 351.839844 214.429688 351.621094 214.417969 C 351.511719 214.410156 351.414062 214.40625 351.320312 214.402344 C 351.230469 214.398438 351.144531 214.398438 351.070312 214.394531 C 350.996094 214.394531 350.929688 214.394531 350.871094 214.390625 C 350.816406 214.390625 350.765625 214.390625 350.726562 214.390625 C 350.652344 214.390625 350.609375 214.390625 350.609375 214.390625 C 350.609375 214.390625 350.570312 214.390625 350.492188 214.390625 C 350.453125 214.390625 350.40625 214.390625 350.347656 214.390625 Z M 350.347656 214.390625 " fill-opacity="1" fill-rule="nonzero"/><g clip-path="url(#7b05764f81)"><path fill="#ffffff" d="M 350.425781 194.886719 C 345.949219 194.886719 342.304688 198.53125 342.304688 203.007812 C 342.304688 206.429688 344.578125 210.578125 346.488281 213.457031 C 346.753906 213.859375 347.019531 214.246094 347.277344 214.613281 C 347.875 214.53125 348.402344 214.480469 348.855469 214.449219 C 348.925781 214.445312 348.992188 214.441406 349.058594 214.4375 C 349.125 214.433594 349.1875 214.429688 349.25 214.425781 C 349.375 214.417969 349.492188 214.414062 349.601562 214.410156 C 349.816406 214.402344 350.003906 214.398438 350.152344 214.394531 C 350.226562 214.394531 350.292969 214.390625 350.351562 214.390625 C 350.40625 214.390625 350.457031 214.390625 350.496094 214.390625 C 350.570312 214.390625 350.613281 214.390625 350.613281 214.390625 C 350.613281 214.390625 350.652344 214.390625 350.730469 214.390625 C 350.765625 214.390625 350.816406 214.390625 350.875 214.390625 C 350.929688 214.390625 350.996094 214.390625 351.070312 214.394531 C 351.144531 214.394531 351.230469 214.398438 351.320312 214.398438 C 351.414062 214.402344 351.515625 214.40625 351.625 214.410156 C 351.730469 214.414062 351.847656 214.417969 351.972656 214.425781 C 352.035156 214.429688 352.097656 214.433594 352.164062 214.4375 C 352.230469 214.441406 352.300781 214.445312 352.367188 214.449219 C 352.4375 214.457031 352.511719 214.460938 352.582031 214.464844 C 352.65625 214.472656 352.730469 214.476562 352.808594 214.484375 C 352.886719 214.492188 352.964844 214.5 353.046875 214.507812 C 353.085938 214.511719 353.125 214.515625 353.167969 214.519531 C 353.207031 214.523438 353.25 214.527344 353.292969 214.535156 C 353.445312 214.550781 353.609375 214.570312 353.773438 214.59375 C 354.019531 214.234375 354.265625 213.859375 354.515625 213.472656 C 356.355469 210.601562 358.550781 206.453125 358.550781 203.007812 C 358.546875 198.53125 354.90625 194.886719 350.425781 194.886719 Z M 354.046875 206.628906 C 353.082031 207.597656 351.792969 208.128906 350.425781 208.128906 C 349.058594 208.128906 347.773438 207.597656 346.808594 206.628906 C 345.839844 205.664062 345.308594 204.375 345.308594 203.007812 C 345.308594 201.640625 345.839844 200.355469 346.808594 199.386719 C 347.773438 198.421875 349.058594 197.886719 350.425781 197.886719 C 351.792969 197.886719 353.082031 198.421875 354.046875 199.386719 C 355.015625 200.355469 355.546875 201.640625 355.546875 203.007812 C 355.546875 204.375 355.015625 205.664062 354.046875 206.628906 Z M 354.046875 206.628906 " fill-opacity="1" fill-rule="nonzero"/></g></svg>