<svg xmlns="http://www.w3.org/2000/svg" xmlns:xlink="http://www.w3.org/1999/xlink" width="1920" zoomAndPan="magnify" viewBox="0 0 1440 804.749993" height="1073" preserveAspectRatio="xMidYMid meet" version="1.0"><defs><filter x="0%" y="0%" width="100%" height="100%" id="165b2d1db8"><feColorMatrix values="0 0 0 0 1 0 0 0 0 1 0 0 0 0 1 0 0 0 1 0" color-interpolation-filters="sRGB"/></filter><clipPath id="bcfc810062"><path d="M 0.222656 0 L 1439.777344 0 L 1439.777344 804.5 L 0.222656 804.5 Z M 0.222656 0 " clip-rule="nonzero"/></clipPath><linearGradient x1="0" gradientTransform="matrix(0.749767, 0, 0, 0.749767, 0.223609, 0.0000199938)" y1="0" x2="1919.99992" gradientUnits="userSpaceOnUse" y2="0" id="94db5d553f"><stop stop-opacity="1" stop-color="rgb(0%, 0%, 0%)" offset="0"/><stop stop-opacity="1" stop-color="rgb(0.175476%, 0.175476%, 0.175476%)" offset="0.0078125"/><stop stop-opacity="1" stop-color="rgb(0.526428%, 0.526428%, 0.526428%)" offset="0.015625"/><stop stop-opacity="1" stop-color="rgb(0.878906%, 0.878906%, 0.878906%)" offset="0.0234375"/><stop stop-opacity="1" stop-color="rgb(1.231384%, 1.231384%, 1.231384%)" offset="0.03125"/><stop stop-opacity="1" stop-color="rgb(1.583862%, 1.583862%, 1.583862%)" offset="0.0390625"/><stop stop-opacity="1" stop-color="rgb(1.93634%, 1.93634%, 1.93634%)" offset="0.046875"/><stop stop-opacity="1" stop-color="rgb(2.288818%, 2.288818%, 2.288818%)" offset="0.0546875"/><stop stop-opacity="1" stop-color="rgb(2.641296%, 2.641296%, 2.641296%)" offset="0.0625"/><stop stop-opacity="1" stop-color="rgb(2.993774%, 2.993774%, 2.993774%)" offset="0.0703125"/><stop stop-opacity="1" stop-color="rgb(3.346252%, 3.346252%, 3.346252%)" offset="0.078125"/><stop stop-opacity="1" stop-color="rgb(3.69873%, 3.69873%, 3.69873%)" offset="0.0859375"/><stop stop-opacity="1" stop-color="rgb(4.051208%, 4.051208%, 4.051208%)" offset="0.09375"/><stop stop-opacity="1" stop-color="rgb(4.402161%, 4.402161%, 4.402161%)" offset="0.101562"/><stop stop-opacity="1" stop-color="rgb(4.754639%, 4.754639%, 4.754639%)" offset="0.109375"/><stop stop-opacity="1" stop-color="rgb(5.107117%, 5.107117%, 5.107117%)" offset="0.117188"/><stop stop-opacity="1" stop-color="rgb(5.459595%, 5.459595%, 5.459595%)" offset="0.125"/><stop stop-opacity="1" stop-color="rgb(5.812073%, 5.812073%, 5.812073%)" offset="0.132812"/><stop stop-opacity="1" stop-color="rgb(6.164551%, 6.164551%, 6.164551%)" offset="0.140625"/><stop stop-opacity="1" stop-color="rgb(6.517029%, 6.517029%, 6.517029%)" offset="0.148438"/><stop stop-opacity="1" stop-color="rgb(6.869507%, 6.869507%, 6.869507%)" offset="0.15625"/><stop stop-opacity="1" stop-color="rgb(7.221985%, 7.221985%, 7.221985%)" offset="0.164062"/><stop stop-opacity="1" stop-color="rgb(7.574463%, 7.574463%, 7.574463%)" offset="0.171875"/><stop stop-opacity="1" stop-color="rgb(7.926941%, 7.926941%, 7.926941%)" offset="0.179688"/><stop stop-opacity="1" stop-color="rgb(8.277893%, 8.277893%, 8.277893%)" offset="0.1875"/><stop stop-opacity="1" stop-color="rgb(8.630371%, 8.630371%, 8.630371%)" offset="0.195312"/><stop stop-opacity="1" stop-color="rgb(8.982849%, 8.982849%, 8.982849%)" offset="0.203125"/><stop stop-opacity="1" stop-color="rgb(9.335327%, 9.335327%, 9.335327%)" offset="0.210938"/><stop stop-opacity="1" stop-color="rgb(9.687805%, 9.687805%, 9.687805%)" offset="0.21875"/><stop stop-opacity="1" stop-color="rgb(10.040283%, 10.040283%, 10.040283%)" offset="0.226562"/><stop stop-opacity="1" stop-color="rgb(10.392761%, 10.392761%, 10.392761%)" offset="0.234375"/><stop stop-opacity="1" stop-color="rgb(10.745239%, 10.745239%, 10.745239%)" offset="0.242188"/><stop stop-opacity="1" stop-color="rgb(11.097717%, 11.097717%, 11.097717%)" offset="0.25"/><stop stop-opacity="1" stop-color="rgb(11.450195%, 11.450195%, 11.450195%)" offset="0.257812"/><stop stop-opacity="1" stop-color="rgb(11.802673%, 11.802673%, 11.802673%)" offset="0.265625"/><stop stop-opacity="1" stop-color="rgb(12.155151%, 12.155151%, 12.155151%)" offset="0.273438"/><stop stop-opacity="1" stop-color="rgb(12.506104%, 12.506104%, 12.506104%)" offset="0.28125"/><stop stop-opacity="1" stop-color="rgb(12.858582%, 12.858582%, 12.858582%)" offset="0.289062"/><stop stop-opacity="1" stop-color="rgb(13.21106%, 13.21106%, 13.21106%)" offset="0.296875"/><stop stop-opacity="1" stop-color="rgb(13.563538%, 13.563538%, 13.563538%)" offset="0.304688"/><stop stop-opacity="1" stop-color="rgb(13.916016%, 13.916016%, 13.916016%)" offset="0.3125"/><stop stop-opacity="1" stop-color="rgb(14.268494%, 14.268494%, 14.268494%)" offset="0.320312"/><stop stop-opacity="1" stop-color="rgb(14.620972%, 14.620972%, 14.620972%)" offset="0.328125"/><stop stop-opacity="1" stop-color="rgb(14.97345%, 14.97345%, 14.97345%)" offset="0.335938"/><stop stop-opacity="1" stop-color="rgb(15.325928%, 15.325928%, 15.325928%)" offset="0.34375"/><stop stop-opacity="1" stop-color="rgb(15.678406%, 15.678406%, 15.678406%)" offset="0.351562"/><stop stop-opacity="1" stop-color="rgb(16.030884%, 16.030884%, 16.030884%)" offset="0.359375"/><stop stop-opacity="1" stop-color="rgb(16.381836%, 16.381836%, 16.381836%)" offset="0.367188"/><stop stop-opacity="1" stop-color="rgb(16.734314%, 16.734314%, 16.734314%)" offset="0.375"/><stop stop-opacity="1" stop-color="rgb(17.086792%, 17.086792%, 17.086792%)" offset="0.382812"/><stop stop-opacity="1" stop-color="rgb(17.43927%, 17.43927%, 17.43927%)" offset="0.390625"/><stop stop-opacity="1" stop-color="rgb(17.791748%, 17.791748%, 17.791748%)" offset="0.398438"/><stop stop-opacity="1" stop-color="rgb(18.144226%, 18.144226%, 18.144226%)" offset="0.40625"/><stop stop-opacity="1" stop-color="rgb(18.496704%, 18.496704%, 18.496704%)" offset="0.414062"/><stop stop-opacity="1" stop-color="rgb(18.849182%, 18.849182%, 18.849182%)" offset="0.421875"/><stop stop-opacity="1" stop-color="rgb(19.20166%, 19.20166%, 19.20166%)" offset="0.429688"/><stop stop-opacity="1" stop-color="rgb(19.554138%, 19.554138%, 19.554138%)" offset="0.4375"/><stop stop-opacity="1" stop-color="rgb(19.906616%, 19.906616%, 19.906616%)" offset="0.445312"/><stop stop-opacity="1" stop-color="rgb(20.257568%, 20.257568%, 20.257568%)" offset="0.453125"/><stop stop-opacity="1" stop-color="rgb(20.610046%, 20.610046%, 20.610046%)" offset="0.460938"/><stop stop-opacity="1" stop-color="rgb(20.962524%, 20.962524%, 20.962524%)" offset="0.46875"/><stop stop-opacity="1" stop-color="rgb(21.315002%, 21.315002%, 21.315002%)" offset="0.476562"/><stop stop-opacity="1" stop-color="rgb(21.66748%, 21.66748%, 21.66748%)" offset="0.484375"/><stop stop-opacity="1" stop-color="rgb(22.019958%, 22.019958%, 22.019958%)" offset="0.492188"/><stop stop-opacity="1" stop-color="rgb(22.372437%, 22.372437%, 22.372437%)" offset="0.5"/><stop stop-opacity="1" stop-color="rgb(22.724915%, 22.724915%, 22.724915%)" offset="0.507812"/><stop stop-opacity="1" stop-color="rgb(23.077393%, 23.077393%, 23.077393%)" offset="0.515625"/><stop stop-opacity="1" stop-color="rgb(23.429871%, 23.429871%, 23.429871%)" offset="0.523438"/><stop stop-opacity="1" stop-color="rgb(23.782349%, 23.782349%, 23.782349%)" offset="0.53125"/><stop stop-opacity="1" stop-color="rgb(24.134827%, 24.134827%, 24.134827%)" offset="0.539062"/><stop stop-opacity="1" stop-color="rgb(24.485779%, 24.485779%, 24.485779%)" offset="0.546875"/><stop stop-opacity="1" stop-color="rgb(24.838257%, 24.838257%, 24.838257%)" offset="0.554688"/><stop stop-opacity="1" stop-color="rgb(25.190735%, 25.190735%, 25.190735%)" offset="0.5625"/><stop stop-opacity="1" stop-color="rgb(25.543213%, 25.543213%, 25.543213%)" offset="0.570312"/><stop stop-opacity="1" stop-color="rgb(25.895691%, 25.895691%, 25.895691%)" offset="0.578125"/><stop stop-opacity="1" stop-color="rgb(26.248169%, 26.248169%, 26.248169%)" offset="0.585938"/><stop stop-opacity="1" stop-color="rgb(26.600647%, 26.600647%, 26.600647%)" offset="0.59375"/><stop stop-opacity="1" stop-color="rgb(26.953125%, 26.953125%, 26.953125%)" offset="0.601562"/><stop stop-opacity="1" stop-color="rgb(27.305603%, 27.305603%, 27.305603%)" offset="0.609375"/><stop stop-opacity="1" stop-color="rgb(27.658081%, 27.658081%, 27.658081%)" offset="0.617188"/><stop stop-opacity="1" stop-color="rgb(28.010559%, 28.010559%, 28.010559%)" offset="0.625"/><stop stop-opacity="1" stop-color="rgb(28.361511%, 28.361511%, 28.361511%)" offset="0.632812"/><stop stop-opacity="1" stop-color="rgb(28.713989%, 28.713989%, 28.713989%)" offset="0.640625"/><stop stop-opacity="1" stop-color="rgb(29.066467%, 29.066467%, 29.066467%)" offset="0.648438"/><stop stop-opacity="1" stop-color="rgb(29.418945%, 29.418945%, 29.418945%)" offset="0.65625"/><stop stop-opacity="1" stop-color="rgb(29.771423%, 29.771423%, 29.771423%)" offset="0.664062"/><stop stop-opacity="1" stop-color="rgb(30.123901%, 30.123901%, 30.123901%)" offset="0.671875"/><stop stop-opacity="1" stop-color="rgb(30.476379%, 30.476379%, 30.476379%)" offset="0.679688"/><stop stop-opacity="1" stop-color="rgb(30.828857%, 30.828857%, 30.828857%)" offset="0.6875"/><stop stop-opacity="1" stop-color="rgb(31.181335%, 31.181335%, 31.181335%)" offset="0.695312"/><stop stop-opacity="1" stop-color="rgb(31.533813%, 31.533813%, 31.533813%)" offset="0.703125"/><stop stop-opacity="1" stop-color="rgb(31.886292%, 31.886292%, 31.886292%)" offset="0.710938"/><stop stop-opacity="1" stop-color="rgb(32.237244%, 32.237244%, 32.237244%)" offset="0.71875"/><stop stop-opacity="1" stop-color="rgb(32.589722%, 32.589722%, 32.589722%)" offset="0.726562"/><stop stop-opacity="1" stop-color="rgb(32.9422%, 32.9422%, 32.9422%)" offset="0.734375"/><stop stop-opacity="1" stop-color="rgb(33.294678%, 33.294678%, 33.294678%)" offset="0.742188"/><stop stop-opacity="1" stop-color="rgb(33.647156%, 33.647156%, 33.647156%)" offset="0.75"/><stop stop-opacity="1" stop-color="rgb(33.999634%, 33.999634%, 33.999634%)" offset="0.757812"/><stop stop-opacity="1" stop-color="rgb(34.352112%, 34.352112%, 34.352112%)" offset="0.765625"/><stop stop-opacity="1" stop-color="rgb(34.70459%, 34.70459%, 34.70459%)" offset="0.773438"/><stop stop-opacity="1" stop-color="rgb(35.057068%, 35.057068%, 35.057068%)" offset="0.78125"/><stop stop-opacity="1" stop-color="rgb(35.409546%, 35.409546%, 35.409546%)" offset="0.789062"/><stop stop-opacity="1" stop-color="rgb(35.762024%, 35.762024%, 35.762024%)" offset="0.796875"/><stop stop-opacity="1" stop-color="rgb(36.114502%, 36.114502%, 36.114502%)" offset="0.804688"/><stop stop-opacity="1" stop-color="rgb(36.465454%, 36.465454%, 36.465454%)" offset="0.8125"/><stop stop-opacity="1" stop-color="rgb(36.817932%, 36.817932%, 36.817932%)" offset="0.820312"/><stop stop-opacity="1" stop-color="rgb(37.17041%, 37.17041%, 37.17041%)" offset="0.828125"/><stop stop-opacity="1" stop-color="rgb(37.522888%, 37.522888%, 37.522888%)" offset="0.835938"/><stop stop-opacity="1" stop-color="rgb(37.875366%, 37.875366%, 37.875366%)" offset="0.84375"/><stop stop-opacity="1" stop-color="rgb(38.227844%, 38.227844%, 38.227844%)" offset="0.851562"/><stop stop-opacity="1" stop-color="rgb(38.580322%, 38.580322%, 38.580322%)" offset="0.859375"/><stop stop-opacity="1" stop-color="rgb(38.9328%, 38.9328%, 38.9328%)" offset="0.867188"/><stop stop-opacity="1" stop-color="rgb(39.285278%, 39.285278%, 39.285278%)" offset="0.875"/><stop stop-opacity="1" stop-color="rgb(39.637756%, 39.637756%, 39.637756%)" offset="0.882812"/><stop stop-opacity="1" stop-color="rgb(39.990234%, 39.990234%, 39.990234%)" offset="0.890625"/><stop stop-opacity="1" stop-color="rgb(40.341187%, 40.341187%, 40.341187%)" offset="0.898438"/><stop stop-opacity="1" stop-color="rgb(40.693665%, 40.693665%, 40.693665%)" offset="0.90625"/><stop stop-opacity="1" stop-color="rgb(41.046143%, 41.046143%, 41.046143%)" offset="0.914062"/><stop stop-opacity="1" stop-color="rgb(41.398621%, 41.398621%, 41.398621%)" offset="0.921875"/><stop stop-opacity="1" stop-color="rgb(41.751099%, 41.751099%, 41.751099%)" offset="0.929688"/><stop stop-opacity="1" stop-color="rgb(42.103577%, 42.103577%, 42.103577%)" offset="0.9375"/><stop stop-opacity="1" stop-color="rgb(42.456055%, 42.456055%, 42.456055%)" offset="0.945312"/><stop stop-opacity="1" stop-color="rgb(42.808533%, 42.808533%, 42.808533%)" offset="0.953125"/><stop stop-opacity="1" stop-color="rgb(43.161011%, 43.161011%, 43.161011%)" offset="0.960938"/><stop stop-opacity="1" stop-color="rgb(43.513489%, 43.513489%, 43.513489%)" offset="0.96875"/><stop stop-opacity="1" stop-color="rgb(43.865967%, 43.865967%, 43.865967%)" offset="0.976562"/><stop stop-opacity="1" stop-color="rgb(44.216919%, 44.216919%, 44.216919%)" offset="0.984375"/><stop stop-opacity="1" stop-color="rgb(44.569397%, 44.569397%, 44.569397%)" offset="0.992188"/><stop stop-opacity="1" stop-color="rgb(44.921875%, 44.921875%, 44.921875%)" offset="1"/></linearGradient><mask id="510cc6d579"><g filter="url(#165b2d1db8)"><rect x="-144" width="1728" fill="#000000" y="-80.474999" height="965.699992" fill-opacity="0.59"/></g></mask><clipPath id="72c30156c0"><path d="M 3 3.457031 L 562.925781 3.457031 L 562.925781 410 L 3 410 Z M 3 3.457031 " clip-rule="nonzero"/></clipPath><clipPath id="2043d3bcc9"><rect x="0" width="566" y="0" height="413"/></clipPath></defs><g clip-path="url(#bcfc810062)"><path fill="#ffffff" d="M 0.222656 0 L 1439.777344 0 L 1439.777344 804.5 L 0.222656 804.5 Z M 0.222656 0 " fill-opacity="1" fill-rule="nonzero"/><path fill="url(#94db5d553f)" d="M 0.222656 0 L 0.222656 804.5 L 1439.777344 804.5 L 1439.777344 0 Z M 0.222656 0 " fill-rule="nonzero"/></g><g mask="url(#510cc6d579)"><g transform="matrix(1, 0, 0, 1, 438, 377)"><g clip-path="url(#2043d3bcc9)"><g clip-path="url(#72c30156c0)"><path fill="#ffffff" d="M 501.453125 281.097656 L 449.679688 15.746094 C 448.503906 9.273438 442.03125 3.980469 435.558594 3.980469 L 375.546875 3.980469 C 367.898438 3.980469 360.835938 10.453125 360.835938 18.6875 C 360.835938 26.335938 367.308594 33.398438 375.546875 33.398438 L 423.203125 33.398438 L 456.738281 205.199219 C 457.917969 211.671875 456.152344 218.140625 452.621094 223.4375 L 390.84375 300.511719 C 388.488281 302.867188 385.546875 304.632812 382.019531 304.632812 L 296.117188 304.632812 L 296.117188 234.027344 C 296.117188 219.90625 307.296875 208.730469 321.417969 208.730469 L 344.953125 208.730469 C 369.664062 208.730469 389.667969 188.722656 389.667969 164.011719 C 389.667969 139.300781 369.664062 119.296875 344.953125 119.296875 L 308.472656 119.296875 L 308.472656 118.121094 C 308.472656 115.179688 306.121094 112.238281 302.589844 112.238281 L 290.234375 112.238281 C 283.171875 93.410156 265.523438 79.289062 243.753906 79.289062 L 226.101562 79.289062 L 226.101562 76.9375 C 226.101562 71.640625 221.984375 67.523438 216.6875 67.523438 C 211.394531 67.523438 207.273438 71.640625 207.273438 76.9375 L 207.273438 92.820312 L 173.738281 92.820312 C 168.445312 92.820312 164.324219 96.941406 164.324219 102.234375 C 164.324219 107.53125 168.445312 111.648438 173.738281 111.648438 L 206.6875 111.648438 L 206.6875 144.597656 L 173.152344 144.597656 C 167.855469 144.597656 163.738281 148.714844 163.738281 154.011719 C 163.738281 159.304688 167.855469 163.425781 173.152344 163.425781 L 206.6875 163.425781 L 206.6875 179.3125 C 206.6875 184.605469 210.804688 188.722656 216.101562 188.722656 C 221.394531 188.722656 225.515625 184.605469 225.515625 179.3125 L 225.515625 176.957031 L 243.164062 176.957031 C 264.347656 176.957031 282.585938 163.425781 289.644531 144.007812 L 302 144.007812 C 304.941406 144.007812 307.882812 141.65625 307.882812 138.125 L 307.882812 136.949219 L 344.363281 136.949219 C 358.484375 136.949219 369.664062 148.128906 369.664062 162.25 C 369.664062 176.367188 358.484375 187.546875 344.363281 187.546875 L 320.828125 187.546875 C 296.117188 187.546875 276.113281 207.550781 276.113281 232.261719 L 276.113281 302.867188 L 191.976562 302.867188 C 188.449219 302.867188 185.507812 300.511719 184.328125 297.570312 C 166.089844 255.207031 123.140625 224.027344 72.542969 224.027344 C 50.773438 224.027344 29.589844 229.910156 10.761719 241.089844 C 3.703125 245.207031 1.9375 254.03125 5.46875 261.09375 C 9.585938 268.152344 18.410156 269.917969 25.472656 266.386719 C 39.59375 258.152344 56.066406 253.445312 72.542969 253.445312 C 117.84375 253.445312 156.089844 286.980469 163.148438 330.519531 L 134.90625 330.519531 C 127.257812 298.746094 96.664062 276.390625 61.363281 282.273438 C 36.0625 286.390625 15.46875 306.394531 10.175781 331.105469 C 1.351562 372.292969 32.53125 408.769531 72.542969 408.769531 C 102.546875 408.769531 127.847656 387.589844 134.320312 359.9375 L 373.78125 359.9375 C 377.898438 359.9375 382.605469 358.171875 384.960938 354.640625 L 466.152344 252.855469 L 472.625 287.570312 C 447.324219 299.335938 430.851562 326.398438 436.148438 356.996094 C 440.265625 381.707031 460.269531 402.296875 484.980469 407.59375 C 526.164062 416.417969 562.644531 385.234375 562.644531 345.226562 C 562.644531 310.515625 535.578125 282.273438 501.453125 281.097656 Z M 72.542969 359.347656 L 103.722656 359.347656 C 98.429688 371.117188 86.660156 379.351562 72.542969 379.351562 C 53.125 379.351562 37.828125 364.054688 37.828125 344.640625 C 37.828125 325.222656 53.125 309.925781 72.542969 309.925781 C 86.660156 309.925781 98.429688 318.164062 103.722656 329.929688 L 72.542969 329.929688 C 64.890625 329.929688 57.832031 336.402344 57.832031 344.640625 C 57.832031 352.875 64.304688 359.347656 72.542969 359.347656 Z M 499.101562 379.351562 C 479.683594 379.351562 464.386719 364.054688 464.386719 344.640625 C 464.386719 332.871094 470.273438 322.871094 478.507812 316.398438 L 484.390625 347.582031 C 485.570312 354.640625 492.039062 359.347656 498.511719 359.347656 C 499.691406 359.347656 500.277344 359.347656 501.453125 359.347656 C 509.101562 358.171875 514.398438 350.523438 513.222656 342.285156 L 507.339844 311.101562 C 522.636719 314.632812 533.8125 328.164062 533.8125 344.640625 C 533.8125 364.054688 518.515625 379.351562 499.101562 379.351562 Z M 499.101562 379.351562 " fill-opacity="1" fill-rule="nonzero"/></g><path fill="#ffffff" d="M 73.71875 144.597656 L 89.015625 144.597656 L 83.71875 178.132812 C 83.132812 181.664062 84.898438 185.195312 88.425781 186.960938 C 89.601562 187.546875 90.78125 187.546875 91.367188 187.546875 C 93.722656 187.546875 96.074219 186.371094 97.839844 184.015625 L 139.613281 128.125 C 141.378906 125.769531 141.96875 122.238281 140.203125 119.886719 C 139.027344 116.945312 136.082031 115.179688 133.140625 115.179688 L 118.433594 115.179688 L 123.726562 81.644531 C 124.316406 78.113281 122.550781 74.582031 119.019531 72.816406 C 115.492188 71.640625 111.371094 72.230469 109.609375 75.757812 L 67.835938 131.652344 C 66.070312 134.007812 65.480469 137.539062 67.246094 139.890625 C 67.835938 142.832031 70.777344 144.597656 73.71875 144.597656 Z M 73.71875 144.597656 " fill-opacity="1" fill-rule="nonzero"/></g></g></g></svg>