<svg xmlns="http://www.w3.org/2000/svg" xmlns:xlink="http://www.w3.org/1999/xlink" width="1920" zoomAndPan="magnify" viewBox="0 0 1440 804.749993" height="1073" preserveAspectRatio="xMidYMid meet" version="1.0"><defs><filter x="0%" y="0%" width="100%" height="100%" id="1c70e7976e"><feColorMatrix values="0 0 0 0 1 0 0 0 0 1 0 0 0 0 1 0 0 0 1 0" color-interpolation-filters="sRGB"/></filter><g/><clipPath id="819e7d1ea5"><path d="M 0.222656 0 L 1439.777344 0 L 1439.777344 804.5 L 0.222656 804.5 Z M 0.222656 0 " clip-rule="nonzero"/></clipPath><linearGradient x1="0" gradientTransform="matrix(0.749767, 0, 0, 0.749767, 0.223609, 0.0000199938)" y1="0" x2="1919.99992" gradientUnits="userSpaceOnUse" y2="0" id="d09344409b"><stop stop-opacity="1" stop-color="rgb(0%, 0%, 0%)" offset="0"/><stop stop-opacity="1" stop-color="rgb(0.175476%, 0.175476%, 0.175476%)" offset="0.0078125"/><stop stop-opacity="1" stop-color="rgb(0.526428%, 0.526428%, 0.526428%)" offset="0.015625"/><stop stop-opacity="1" stop-color="rgb(0.878906%, 0.878906%, 0.878906%)" offset="0.0234375"/><stop stop-opacity="1" stop-color="rgb(1.231384%, 1.231384%, 1.231384%)" offset="0.03125"/><stop stop-opacity="1" stop-color="rgb(1.583862%, 1.583862%, 1.583862%)" offset="0.0390625"/><stop stop-opacity="1" stop-color="rgb(1.93634%, 1.93634%, 1.93634%)" offset="0.046875"/><stop stop-opacity="1" stop-color="rgb(2.288818%, 2.288818%, 2.288818%)" offset="0.0546875"/><stop stop-opacity="1" stop-color="rgb(2.641296%, 2.641296%, 2.641296%)" offset="0.0625"/><stop stop-opacity="1" stop-color="rgb(2.993774%, 2.993774%, 2.993774%)" offset="0.0703125"/><stop stop-opacity="1" stop-color="rgb(3.346252%, 3.346252%, 3.346252%)" offset="0.078125"/><stop stop-opacity="1" stop-color="rgb(3.69873%, 3.69873%, 3.69873%)" offset="0.0859375"/><stop stop-opacity="1" stop-color="rgb(4.051208%, 4.051208%, 4.051208%)" offset="0.09375"/><stop stop-opacity="1" stop-color="rgb(4.402161%, 4.402161%, 4.402161%)" offset="0.101562"/><stop stop-opacity="1" stop-color="rgb(4.754639%, 4.754639%, 4.754639%)" offset="0.109375"/><stop stop-opacity="1" stop-color="rgb(5.107117%, 5.107117%, 5.107117%)" offset="0.117188"/><stop stop-opacity="1" stop-color="rgb(5.459595%, 5.459595%, 5.459595%)" offset="0.125"/><stop stop-opacity="1" stop-color="rgb(5.812073%, 5.812073%, 5.812073%)" offset="0.132812"/><stop stop-opacity="1" stop-color="rgb(6.164551%, 6.164551%, 6.164551%)" offset="0.140625"/><stop stop-opacity="1" stop-color="rgb(6.517029%, 6.517029%, 6.517029%)" offset="0.148438"/><stop stop-opacity="1" stop-color="rgb(6.869507%, 6.869507%, 6.869507%)" offset="0.15625"/><stop stop-opacity="1" stop-color="rgb(7.221985%, 7.221985%, 7.221985%)" offset="0.164062"/><stop stop-opacity="1" stop-color="rgb(7.574463%, 7.574463%, 7.574463%)" offset="0.171875"/><stop stop-opacity="1" stop-color="rgb(7.926941%, 7.926941%, 7.926941%)" offset="0.179688"/><stop stop-opacity="1" stop-color="rgb(8.277893%, 8.277893%, 8.277893%)" offset="0.1875"/><stop stop-opacity="1" stop-color="rgb(8.630371%, 8.630371%, 8.630371%)" offset="0.195312"/><stop stop-opacity="1" stop-color="rgb(8.982849%, 8.982849%, 8.982849%)" offset="0.203125"/><stop stop-opacity="1" stop-color="rgb(9.335327%, 9.335327%, 9.335327%)" offset="0.210938"/><stop stop-opacity="1" stop-color="rgb(9.687805%, 9.687805%, 9.687805%)" offset="0.21875"/><stop stop-opacity="1" stop-color="rgb(10.040283%, 10.040283%, 10.040283%)" offset="0.226562"/><stop stop-opacity="1" stop-color="rgb(10.392761%, 10.392761%, 10.392761%)" offset="0.234375"/><stop stop-opacity="1" stop-color="rgb(10.745239%, 10.745239%, 10.745239%)" offset="0.242188"/><stop stop-opacity="1" stop-color="rgb(11.097717%, 11.097717%, 11.097717%)" offset="0.25"/><stop stop-opacity="1" stop-color="rgb(11.450195%, 11.450195%, 11.450195%)" offset="0.257812"/><stop stop-opacity="1" stop-color="rgb(11.802673%, 11.802673%, 11.802673%)" offset="0.265625"/><stop stop-opacity="1" stop-color="rgb(12.155151%, 12.155151%, 12.155151%)" offset="0.273438"/><stop stop-opacity="1" stop-color="rgb(12.506104%, 12.506104%, 12.506104%)" offset="0.28125"/><stop stop-opacity="1" stop-color="rgb(12.858582%, 12.858582%, 12.858582%)" offset="0.289062"/><stop stop-opacity="1" stop-color="rgb(13.21106%, 13.21106%, 13.21106%)" offset="0.296875"/><stop stop-opacity="1" stop-color="rgb(13.563538%, 13.563538%, 13.563538%)" offset="0.304688"/><stop stop-opacity="1" stop-color="rgb(13.916016%, 13.916016%, 13.916016%)" offset="0.3125"/><stop stop-opacity="1" stop-color="rgb(14.268494%, 14.268494%, 14.268494%)" offset="0.320312"/><stop stop-opacity="1" stop-color="rgb(14.620972%, 14.620972%, 14.620972%)" offset="0.328125"/><stop stop-opacity="1" stop-color="rgb(14.97345%, 14.97345%, 14.97345%)" offset="0.335938"/><stop stop-opacity="1" stop-color="rgb(15.325928%, 15.325928%, 15.325928%)" offset="0.34375"/><stop stop-opacity="1" stop-color="rgb(15.678406%, 15.678406%, 15.678406%)" offset="0.351562"/><stop stop-opacity="1" stop-color="rgb(16.030884%, 16.030884%, 16.030884%)" offset="0.359375"/><stop stop-opacity="1" stop-color="rgb(16.381836%, 16.381836%, 16.381836%)" offset="0.367188"/><stop stop-opacity="1" stop-color="rgb(16.734314%, 16.734314%, 16.734314%)" offset="0.375"/><stop stop-opacity="1" stop-color="rgb(17.086792%, 17.086792%, 17.086792%)" offset="0.382812"/><stop stop-opacity="1" stop-color="rgb(17.43927%, 17.43927%, 17.43927%)" offset="0.390625"/><stop stop-opacity="1" stop-color="rgb(17.791748%, 17.791748%, 17.791748%)" offset="0.398438"/><stop stop-opacity="1" stop-color="rgb(18.144226%, 18.144226%, 18.144226%)" offset="0.40625"/><stop stop-opacity="1" stop-color="rgb(18.496704%, 18.496704%, 18.496704%)" offset="0.414062"/><stop stop-opacity="1" stop-color="rgb(18.849182%, 18.849182%, 18.849182%)" offset="0.421875"/><stop stop-opacity="1" stop-color="rgb(19.20166%, 19.20166%, 19.20166%)" offset="0.429688"/><stop stop-opacity="1" stop-color="rgb(19.554138%, 19.554138%, 19.554138%)" offset="0.4375"/><stop stop-opacity="1" stop-color="rgb(19.906616%, 19.906616%, 19.906616%)" offset="0.445312"/><stop stop-opacity="1" stop-color="rgb(20.257568%, 20.257568%, 20.257568%)" offset="0.453125"/><stop stop-opacity="1" stop-color="rgb(20.610046%, 20.610046%, 20.610046%)" offset="0.460938"/><stop stop-opacity="1" stop-color="rgb(20.962524%, 20.962524%, 20.962524%)" offset="0.46875"/><stop stop-opacity="1" stop-color="rgb(21.315002%, 21.315002%, 21.315002%)" offset="0.476562"/><stop stop-opacity="1" stop-color="rgb(21.66748%, 21.66748%, 21.66748%)" offset="0.484375"/><stop stop-opacity="1" stop-color="rgb(22.019958%, 22.019958%, 22.019958%)" offset="0.492188"/><stop stop-opacity="1" stop-color="rgb(22.372437%, 22.372437%, 22.372437%)" offset="0.5"/><stop stop-opacity="1" stop-color="rgb(22.724915%, 22.724915%, 22.724915%)" offset="0.507812"/><stop stop-opacity="1" stop-color="rgb(23.077393%, 23.077393%, 23.077393%)" offset="0.515625"/><stop stop-opacity="1" stop-color="rgb(23.429871%, 23.429871%, 23.429871%)" offset="0.523438"/><stop stop-opacity="1" stop-color="rgb(23.782349%, 23.782349%, 23.782349%)" offset="0.53125"/><stop stop-opacity="1" stop-color="rgb(24.134827%, 24.134827%, 24.134827%)" offset="0.539062"/><stop stop-opacity="1" stop-color="rgb(24.485779%, 24.485779%, 24.485779%)" offset="0.546875"/><stop stop-opacity="1" stop-color="rgb(24.838257%, 24.838257%, 24.838257%)" offset="0.554688"/><stop stop-opacity="1" stop-color="rgb(25.190735%, 25.190735%, 25.190735%)" offset="0.5625"/><stop stop-opacity="1" stop-color="rgb(25.543213%, 25.543213%, 25.543213%)" offset="0.570312"/><stop stop-opacity="1" stop-color="rgb(25.895691%, 25.895691%, 25.895691%)" offset="0.578125"/><stop stop-opacity="1" stop-color="rgb(26.248169%, 26.248169%, 26.248169%)" offset="0.585938"/><stop stop-opacity="1" stop-color="rgb(26.600647%, 26.600647%, 26.600647%)" offset="0.59375"/><stop stop-opacity="1" stop-color="rgb(26.953125%, 26.953125%, 26.953125%)" offset="0.601562"/><stop stop-opacity="1" stop-color="rgb(27.305603%, 27.305603%, 27.305603%)" offset="0.609375"/><stop stop-opacity="1" stop-color="rgb(27.658081%, 27.658081%, 27.658081%)" offset="0.617188"/><stop stop-opacity="1" stop-color="rgb(28.010559%, 28.010559%, 28.010559%)" offset="0.625"/><stop stop-opacity="1" stop-color="rgb(28.361511%, 28.361511%, 28.361511%)" offset="0.632812"/><stop stop-opacity="1" stop-color="rgb(28.713989%, 28.713989%, 28.713989%)" offset="0.640625"/><stop stop-opacity="1" stop-color="rgb(29.066467%, 29.066467%, 29.066467%)" offset="0.648438"/><stop stop-opacity="1" stop-color="rgb(29.418945%, 29.418945%, 29.418945%)" offset="0.65625"/><stop stop-opacity="1" stop-color="rgb(29.771423%, 29.771423%, 29.771423%)" offset="0.664062"/><stop stop-opacity="1" stop-color="rgb(30.123901%, 30.123901%, 30.123901%)" offset="0.671875"/><stop stop-opacity="1" stop-color="rgb(30.476379%, 30.476379%, 30.476379%)" offset="0.679688"/><stop stop-opacity="1" stop-color="rgb(30.828857%, 30.828857%, 30.828857%)" offset="0.6875"/><stop stop-opacity="1" stop-color="rgb(31.181335%, 31.181335%, 31.181335%)" offset="0.695312"/><stop stop-opacity="1" stop-color="rgb(31.533813%, 31.533813%, 31.533813%)" offset="0.703125"/><stop stop-opacity="1" stop-color="rgb(31.886292%, 31.886292%, 31.886292%)" offset="0.710938"/><stop stop-opacity="1" stop-color="rgb(32.237244%, 32.237244%, 32.237244%)" offset="0.71875"/><stop stop-opacity="1" stop-color="rgb(32.589722%, 32.589722%, 32.589722%)" offset="0.726562"/><stop stop-opacity="1" stop-color="rgb(32.9422%, 32.9422%, 32.9422%)" offset="0.734375"/><stop stop-opacity="1" stop-color="rgb(33.294678%, 33.294678%, 33.294678%)" offset="0.742188"/><stop stop-opacity="1" stop-color="rgb(33.647156%, 33.647156%, 33.647156%)" offset="0.75"/><stop stop-opacity="1" stop-color="rgb(33.999634%, 33.999634%, 33.999634%)" offset="0.757812"/><stop stop-opacity="1" stop-color="rgb(34.352112%, 34.352112%, 34.352112%)" offset="0.765625"/><stop stop-opacity="1" stop-color="rgb(34.70459%, 34.70459%, 34.70459%)" offset="0.773438"/><stop stop-opacity="1" stop-color="rgb(35.057068%, 35.057068%, 35.057068%)" offset="0.78125"/><stop stop-opacity="1" stop-color="rgb(35.409546%, 35.409546%, 35.409546%)" offset="0.789062"/><stop stop-opacity="1" stop-color="rgb(35.762024%, 35.762024%, 35.762024%)" offset="0.796875"/><stop stop-opacity="1" stop-color="rgb(36.114502%, 36.114502%, 36.114502%)" offset="0.804688"/><stop stop-opacity="1" stop-color="rgb(36.465454%, 36.465454%, 36.465454%)" offset="0.8125"/><stop stop-opacity="1" stop-color="rgb(36.817932%, 36.817932%, 36.817932%)" offset="0.820312"/><stop stop-opacity="1" stop-color="rgb(37.17041%, 37.17041%, 37.17041%)" offset="0.828125"/><stop stop-opacity="1" stop-color="rgb(37.522888%, 37.522888%, 37.522888%)" offset="0.835938"/><stop stop-opacity="1" stop-color="rgb(37.875366%, 37.875366%, 37.875366%)" offset="0.84375"/><stop stop-opacity="1" stop-color="rgb(38.227844%, 38.227844%, 38.227844%)" offset="0.851562"/><stop stop-opacity="1" stop-color="rgb(38.580322%, 38.580322%, 38.580322%)" offset="0.859375"/><stop stop-opacity="1" stop-color="rgb(38.9328%, 38.9328%, 38.9328%)" offset="0.867188"/><stop stop-opacity="1" stop-color="rgb(39.285278%, 39.285278%, 39.285278%)" offset="0.875"/><stop stop-opacity="1" stop-color="rgb(39.637756%, 39.637756%, 39.637756%)" offset="0.882812"/><stop stop-opacity="1" stop-color="rgb(39.990234%, 39.990234%, 39.990234%)" offset="0.890625"/><stop stop-opacity="1" stop-color="rgb(40.341187%, 40.341187%, 40.341187%)" offset="0.898438"/><stop stop-opacity="1" stop-color="rgb(40.693665%, 40.693665%, 40.693665%)" offset="0.90625"/><stop stop-opacity="1" stop-color="rgb(41.046143%, 41.046143%, 41.046143%)" offset="0.914062"/><stop stop-opacity="1" stop-color="rgb(41.398621%, 41.398621%, 41.398621%)" offset="0.921875"/><stop stop-opacity="1" stop-color="rgb(41.751099%, 41.751099%, 41.751099%)" offset="0.929688"/><stop stop-opacity="1" stop-color="rgb(42.103577%, 42.103577%, 42.103577%)" offset="0.9375"/><stop stop-opacity="1" stop-color="rgb(42.456055%, 42.456055%, 42.456055%)" offset="0.945312"/><stop stop-opacity="1" stop-color="rgb(42.808533%, 42.808533%, 42.808533%)" offset="0.953125"/><stop stop-opacity="1" stop-color="rgb(43.161011%, 43.161011%, 43.161011%)" offset="0.960938"/><stop stop-opacity="1" stop-color="rgb(43.513489%, 43.513489%, 43.513489%)" offset="0.96875"/><stop stop-opacity="1" stop-color="rgb(43.865967%, 43.865967%, 43.865967%)" offset="0.976562"/><stop stop-opacity="1" stop-color="rgb(44.216919%, 44.216919%, 44.216919%)" offset="0.984375"/><stop stop-opacity="1" stop-color="rgb(44.569397%, 44.569397%, 44.569397%)" offset="0.992188"/><stop stop-opacity="1" stop-color="rgb(44.921875%, 44.921875%, 44.921875%)" offset="1"/></linearGradient><clipPath id="a53fa679b5"><path d="M 515 0 L 1004 0 L 1004 804.5 L 515 804.5 Z M 515 0 " clip-rule="nonzero"/></clipPath><mask id="d07380e06f"><g filter="url(#1c70e7976e)"><rect x="-144" width="1728" fill="#000000" y="-80.474999" height="965.699992" fill-opacity="0.55"/></g></mask><clipPath id="675035a4b4"><rect x="0" width="489" y="0" height="805"/></clipPath><mask id="e3019553a6"><g filter="url(#1c70e7976e)"><rect x="-144" width="1728" fill="#000000" y="-80.474999" height="965.699992" fill-opacity="0.55"/></g></mask><clipPath id="40668c8433"><path d="M 3 1 L 125 1 L 125 91 L 3 91 Z M 3 1 " clip-rule="nonzero"/></clipPath><clipPath id="44e2780d35"><path d="M 122.988281 92.980469 L 1.371094 89.390625 L 4.027344 -0.441406 L 125.640625 3.152344 Z M 122.988281 92.980469 " clip-rule="nonzero"/></clipPath><clipPath id="ac55003298"><path d="M 122.988281 92.980469 L 1.371094 89.390625 L 4.027344 -0.441406 L 125.640625 3.152344 Z M 122.988281 92.980469 " clip-rule="nonzero"/></clipPath><clipPath id="26d2549c17"><path d="M 93 52 L 110 52 L 110 78 L 93 78 Z M 93 52 " clip-rule="nonzero"/></clipPath><clipPath id="c582dbeeb6"><path d="M 122.988281 92.980469 L 1.371094 89.390625 L 4.027344 -0.441406 L 125.640625 3.152344 Z M 122.988281 92.980469 " clip-rule="nonzero"/></clipPath><clipPath id="5248433646"><path d="M 122.988281 92.980469 L 1.371094 89.390625 L 4.027344 -0.441406 L 125.640625 3.152344 Z M 122.988281 92.980469 " clip-rule="nonzero"/></clipPath><clipPath id="f234152de3"><rect x="0" width="126" y="0" height="94"/></clipPath><mask id="678f045700"><g filter="url(#1c70e7976e)"><rect x="-144" width="1728" fill="#000000" y="-80.474999" height="965.699992" fill-opacity="0.55"/></g></mask><clipPath id="a5921a6657"><path d="M 4 11 L 79 11 L 79 91 L 4 91 Z M 4 11 " clip-rule="nonzero"/></clipPath><clipPath id="bd0b83d78e"><path d="M 34.378906 1.429688 L 98.699219 46.964844 L 65.144531 94.359375 L 0.824219 48.824219 Z M 34.378906 1.429688 " clip-rule="nonzero"/></clipPath><clipPath id="441f58e8e4"><path d="M 99.246094 47.351562 L 34.925781 1.816406 L 1.371094 49.210938 L 65.691406 94.746094 Z M 99.246094 47.351562 " clip-rule="nonzero"/></clipPath><clipPath id="a4c92818d4"><path d="M 73 45 L 82 45 L 82 62 L 73 62 Z M 73 45 " clip-rule="nonzero"/></clipPath><clipPath id="0ce6768074"><path d="M 34.378906 1.429688 L 98.699219 46.964844 L 65.144531 94.359375 L 0.824219 48.824219 Z M 34.378906 1.429688 " clip-rule="nonzero"/></clipPath><clipPath id="3e98cb2033"><path d="M 99.246094 47.351562 L 34.925781 1.816406 L 1.371094 49.210938 L 65.691406 94.746094 Z M 99.246094 47.351562 " clip-rule="nonzero"/></clipPath><clipPath id="66ae9d669c"><rect x="0" width="100" y="0" height="95"/></clipPath><mask id="97b1cbe115"><g filter="url(#1c70e7976e)"><rect x="-144" width="1728" fill="#000000" y="-80.474999" height="965.699992" fill-opacity="0.55"/></g></mask><clipPath id="8e6787db2e"><path d="M 1 2 L 87 2 L 87 66 L 1 66 Z M 1 2 " clip-rule="nonzero"/></clipPath><clipPath id="547962fc1c"><path d="M 1.59375 1.152344 L 88.671875 3.175781 L 87.195312 66.753906 L 0.117188 64.734375 Z M 1.59375 1.152344 " clip-rule="nonzero"/></clipPath><clipPath id="20380dc94e"><path d="M 1.59375 1.152344 L 88.671875 3.175781 L 87.195312 66.753906 L 0.117188 64.734375 Z M 1.59375 1.152344 " clip-rule="nonzero"/></clipPath><clipPath id="4437218bf1"><path d="M 11 12 L 23 12 L 23 30 L 11 30 Z M 11 12 " clip-rule="nonzero"/></clipPath><clipPath id="b0daa981f7"><path d="M 1.59375 1.152344 L 88.671875 3.175781 L 87.195312 66.753906 L 0.117188 64.734375 Z M 1.59375 1.152344 " clip-rule="nonzero"/></clipPath><clipPath id="73d305425c"><path d="M 1.59375 1.152344 L 88.671875 3.175781 L 87.195312 66.753906 L 0.117188 64.734375 Z M 1.59375 1.152344 " clip-rule="nonzero"/></clipPath><clipPath id="4d01a79486"><rect x="0" width="89" y="0" height="67"/></clipPath><mask id="7bfaf399b9"><g filter="url(#1c70e7976e)"><rect x="-144" width="1728" fill="#000000" y="-80.474999" height="965.699992" fill-opacity="0.55"/></g></mask><clipPath id="dff1e43c34"><path d="M 0.28125 0.804688 L 106.738281 0.804688 L 106.738281 78 L 0.28125 78 Z M 0.28125 0.804688 " clip-rule="nonzero"/></clipPath><clipPath id="591fafca37"><rect x="0" width="108" y="0" height="79"/></clipPath></defs><g clip-path="url(#819e7d1ea5)"><path fill="#ffffff" d="M 0.222656 0 L 1439.777344 0 L 1439.777344 804.5 L 0.222656 804.5 Z M 0.222656 0 " fill-opacity="1" fill-rule="nonzero"/><path fill="url(#d09344409b)" d="M 0.222656 0 L 0.222656 804.5 L 1439.777344 804.5 L 1439.777344 0 Z M 0.222656 0 " fill-rule="nonzero"/></g><g clip-path="url(#a53fa679b5)"><g mask="url(#d07380e06f)"><g transform="matrix(1, 0, 0, 1, 515, 0.000000000000025648)"><g clip-path="url(#675035a4b4)"><g fill="#ffffff" fill-opacity="1"><g transform="translate(0.146334, 646.557778)"><g><path d="M 225.625 5 C 188.976562 5 156.132812 -0.945312 127.09375 -12.84375 C 98.0625 -24.75 74.859375 -42.363281 57.484375 -65.6875 C 40.109375 -89.007812 30.941406 -117.09375 29.984375 -149.9375 L 159.9375 -149.9375 C 161.84375 -131.375 168.269531 -117.210938 179.21875 -107.453125 C 190.164062 -97.703125 204.445312 -92.828125 222.0625 -92.828125 C 240.144531 -92.828125 254.421875 -96.988281 264.890625 -105.3125 C 275.367188 -113.644531 280.609375 -125.191406 280.609375 -139.953125 C 280.609375 -152.328125 276.441406 -162.554688 268.109375 -170.640625 C 259.785156 -178.734375 249.550781 -185.398438 237.40625 -190.640625 C 225.269531 -195.878906 208.015625 -201.832031 185.640625 -208.5 C 153.273438 -218.488281 126.859375 -228.476562 106.390625 -238.46875 C 85.921875 -248.46875 68.304688 -263.226562 53.546875 -282.75 C 38.796875 -302.269531 31.421875 -327.738281 31.421875 -359.15625 C 31.421875 -405.800781 48.316406 -442.332031 82.109375 -468.75 C 115.910156 -495.164062 159.941406 -508.375 214.203125 -508.375 C 269.421875 -508.375 313.925781 -495.164062 347.71875 -468.75 C 381.519531 -442.332031 399.609375 -405.5625 401.984375 -358.4375 L 269.890625 -358.4375 C 268.941406 -374.625 262.992188 -387.359375 252.046875 -396.640625 C 241.097656 -405.921875 227.054688 -410.5625 209.921875 -410.5625 C 195.160156 -410.5625 183.257812 -406.632812 174.21875 -398.78125 C 165.175781 -390.925781 160.65625 -379.617188 160.65625 -364.859375 C 160.65625 -348.671875 168.269531 -336.054688 183.5 -327.015625 C 198.726562 -317.972656 222.53125 -308.21875 254.90625 -297.75 C 287.269531 -286.800781 313.566406 -276.328125 333.796875 -266.328125 C 354.023438 -256.328125 371.519531 -241.804688 386.28125 -222.765625 C 401.039062 -203.734375 408.421875 -179.222656 408.421875 -149.234375 C 408.421875 -120.671875 401.160156 -94.726562 386.640625 -71.40625 C 372.117188 -48.082031 351.050781 -29.515625 323.4375 -15.703125 C 295.832031 -1.898438 263.226562 5 225.625 5 Z M 225.625 5 "/></g></g></g></g></g></g></g><g mask="url(#e3019553a6)"><g transform="matrix(1, 0, 0, 1, 659, 641)"><g clip-path="url(#f234152de3)"><g clip-path="url(#40668c8433)"><g clip-path="url(#44e2780d35)"><g clip-path="url(#ac55003298)"><path fill="#ffffff" d="M 15.992188 29.378906 L 25.546875 87.429688 C 25.761719 88.84375 27.136719 90.039062 28.542969 90.078125 L 41.597656 90.464844 C 43.261719 90.515625 44.839844 89.152344 44.890625 87.359375 C 44.941406 85.695312 43.578125 84.117188 41.785156 84.066406 L 31.421875 83.761719 L 25.230469 46.175781 C 25.015625 44.761719 25.441406 43.363281 26.242188 42.234375 L 40.175781 25.867188 C 40.703125 25.371094 41.355469 25.003906 42.121094 25.027344 L 60.804688 25.578125 L 60.351562 40.9375 C 60.261719 44.007812 57.757812 46.367188 54.6875 46.277344 L 49.566406 46.125 C 44.191406 45.96875 39.714844 50.191406 39.554688 55.566406 C 39.394531 60.941406 43.617188 65.417969 48.992188 65.578125 L 56.929688 65.8125 L 56.921875 66.070312 C 56.902344 66.707031 57.394531 67.363281 58.164062 67.386719 L 60.851562 67.464844 C 62.265625 71.605469 66.011719 74.789062 70.75 74.929688 L 74.585938 75.042969 L 74.574219 75.554688 C 74.539062 76.707031 75.40625 77.628906 76.558594 77.664062 C 77.710938 77.699219 78.632812 76.828125 78.667969 75.675781 L 78.769531 72.222656 L 86.0625 72.4375 C 87.214844 72.472656 88.136719 71.601562 88.171875 70.449219 C 88.207031 69.296875 87.335938 68.375 86.183594 68.34375 L 79.019531 68.128906 L 79.230469 60.964844 L 86.523438 61.179688 C 87.675781 61.214844 88.597656 60.34375 88.632812 59.191406 C 88.667969 58.039062 87.796875 57.117188 86.644531 57.082031 L 79.351562 56.867188 L 79.453125 53.414062 C 79.488281 52.261719 78.617188 51.339844 77.464844 51.304688 C 76.316406 51.269531 75.390625 52.140625 75.359375 53.292969 L 75.34375 53.804688 L 71.503906 53.691406 C 66.898438 53.554688 62.84375 56.378906 61.183594 60.558594 L 58.496094 60.480469 C 57.855469 60.460938 57.199219 60.953125 57.175781 61.722656 L 57.167969 61.976562 L 49.234375 61.742188 C 46.164062 61.652344 43.804688 59.148438 43.894531 56.078125 C 43.984375 53.003906 46.488281 50.644531 49.558594 50.738281 L 54.679688 50.886719 C 60.054688 51.046875 64.535156 46.824219 64.691406 41.449219 L 65.144531 26.09375 L 83.445312 26.632812 C 84.214844 26.65625 84.839844 27.1875 85.078125 27.832031 C 88.773438 37.164062 97.914062 44.222656 108.917969 44.546875 C 113.65625 44.6875 118.300781 43.546875 122.464844 41.234375 C 124.027344 40.382812 124.46875 38.476562 123.746094 36.917969 C 122.898438 35.355469 120.988281 34.914062 119.429688 35.636719 C 116.304688 37.335938 112.691406 38.253906 109.109375 38.148438 C 99.253906 37.859375 91.152344 30.320312 89.894531 20.804688 L 96.039062 20.984375 C 97.496094 27.945312 104.007812 33.003906 111.726562 31.949219 C 117.253906 31.21875 121.863281 27 123.171875 21.65625 C 125.355469 12.757812 118.808594 4.621094 110.105469 4.363281 C 103.578125 4.171875 97.941406 8.617188 96.355469 14.589844 L 44.269531 13.050781 C 43.371094 13.023438 42.335938 13.378906 41.804688 14.128906 L 23.488281 35.75 L 22.304688 28.15625 C 27.882812 25.757812 31.640625 19.976562 30.683594 13.289062 C 29.945312 7.886719 25.726562 3.28125 20.386719 1.96875 C 11.484375 -0.214844 3.351562 6.332031 3.09375 15.035156 C 2.871094 22.585938 8.574219 28.902344 15.992188 29.378906 Z M 109.789062 15.113281 L 103.007812 14.914062 C 104.234375 12.386719 106.847656 10.671875 109.917969 10.761719 C 114.140625 10.886719 117.371094 14.3125 117.246094 18.535156 C 117.121094 22.761719 113.695312 25.988281 109.472656 25.863281 C 106.398438 25.773438 103.894531 23.90625 102.816406 21.3125 L 109.601562 21.511719 C 111.261719 21.5625 112.839844 20.199219 112.894531 18.40625 C 112.945312 16.617188 111.582031 15.167969 109.789062 15.113281 Z M 17.132812 8.023438 C 21.359375 8.148438 24.585938 11.574219 24.460938 15.796875 C 24.386719 18.355469 23.042969 20.492188 21.210938 21.847656 L 20.128906 15.027344 C 19.917969 13.484375 18.542969 12.417969 17.132812 12.378906 C 16.878906 12.371094 16.75 12.367188 16.492188 12.359375 C 14.824219 12.566406 13.621094 14.195312 13.824219 15.992188 L 14.902344 22.8125 C 11.597656 21.949219 9.253906 18.933594 9.359375 15.347656 C 9.484375 11.125 12.910156 7.898438 17.132812 8.023438 Z M 17.132812 8.023438 " fill-opacity="1" fill-rule="nonzero"/></g></g></g><g clip-path="url(#26d2549c17)"><g clip-path="url(#c582dbeeb6)"><g clip-path="url(#5248433646)"><path fill="#ffffff" d="M 108.152344 61.816406 L 104.824219 61.71875 L 106.191406 54.460938 C 106.34375 53.695312 105.984375 52.914062 105.226562 52.507812 C 104.972656 52.375 104.71875 52.367188 104.589844 52.363281 C 104.078125 52.347656 103.558594 52.589844 103.160156 53.089844 L 93.714844 64.976562 C 93.316406 65.480469 93.164062 66.242188 93.53125 66.765625 C 93.769531 67.414062 94.398438 67.816406 95.039062 67.835938 L 98.238281 67.929688 L 96.871094 75.191406 C 96.71875 75.953125 97.082031 76.734375 97.835938 77.140625 C 98.597656 77.417969 99.496094 77.316406 99.902344 76.5625 L 109.351562 64.671875 C 109.75 64.171875 109.898438 63.40625 109.53125 62.882812 C 109.421875 62.238281 108.792969 61.835938 108.152344 61.816406 Z M 108.152344 61.816406 " fill-opacity="1" fill-rule="nonzero"/></g></g></g></g></g></g><g mask="url(#678f045700)"><g transform="matrix(1, 0, 0, 1, 826, 321)"><g clip-path="url(#66ae9d669c)"><g clip-path="url(#a5921a6657)"><g clip-path="url(#bd0b83d78e)"><g clip-path="url(#441f58e8e4)"><path fill="#ffffff" d="M 18.734375 38.519531 L 46.429688 12.089844 C 47.09375 11.4375 48.277344 11.355469 49.023438 11.886719 L 55.957031 16.796875 C 56.84375 17.421875 57.128906 18.746094 56.457031 19.699219 C 55.828125 20.582031 54.503906 20.871094 53.550781 20.195312 L 48.042969 16.296875 L 30.113281 33.40625 C 29.445312 34.058594 29.121094 34.953125 29.097656 35.851562 L 29.929688 49.8125 C 30.007812 50.277344 30.203125 50.722656 30.613281 51.011719 L 40.539062 58.039062 L 46.316406 49.878906 C 47.472656 48.25 47.09375 46.042969 45.460938 44.886719 L 42.742188 42.960938 C 39.886719 40.941406 39.210938 36.992188 41.234375 34.136719 C 43.253906 31.28125 47.203125 30.605469 50.058594 32.625 L 54.273438 35.609375 L 54.371094 35.476562 C 54.613281 35.136719 55.125 34.988281 55.53125 35.277344 L 56.960938 36.289062 C 59.316406 34.6875 62.511719 34.5 65.027344 36.28125 L 67.066406 37.726562 L 67.261719 37.453125 C 67.695312 36.84375 68.507812 36.703125 69.117188 37.136719 C 69.730469 37.570312 69.871094 38.382812 69.4375 38.996094 L 68.136719 40.832031 L 72.011719 43.574219 C 72.625 44.007812 72.761719 44.820312 72.328125 45.433594 C 71.894531 46.042969 71.082031 46.183594 70.472656 45.75 L 66.664062 43.054688 L 63.96875 46.863281 L 67.84375 49.605469 C 68.457031 50.039062 68.59375 50.851562 68.160156 51.464844 C 67.726562 52.078125 66.914062 52.214844 66.304688 51.78125 L 62.425781 49.039062 L 61.128906 50.875 C 60.695312 51.484375 59.882812 51.625 59.269531 51.191406 C 58.65625 50.757812 58.519531 49.945312 58.953125 49.332031 L 59.144531 49.0625 L 57.105469 47.617188 C 54.65625 45.882812 53.65625 42.828125 54.429688 40.007812 L 53 38.996094 C 52.660156 38.753906 52.515625 38.242188 52.800781 37.835938 L 52.898438 37.699219 L 48.683594 34.714844 C 47.050781 33.558594 44.84375 33.9375 43.691406 35.566406 C 42.535156 37.199219 42.910156 39.40625 44.542969 40.5625 L 47.261719 42.488281 C 50.117188 44.507812 50.792969 48.457031 48.773438 51.3125 L 42.996094 59.472656 L 52.71875 66.355469 C 53.125 66.644531 53.660156 66.613281 54.035156 66.371094 C 59.609375 62.96875 67.125 62.878906 72.972656 67.015625 C 75.488281 68.796875 77.453125 71.210938 78.714844 74.042969 C 79.195312 75.097656 78.675781 76.261719 77.691406 76.789062 C 76.636719 77.265625 75.472656 76.75 74.945312 75.765625 C 73.988281 73.65625 72.46875 71.765625 70.566406 70.417969 C 65.328125 66.710938 58.167969 67.457031 53.789062 71.910156 L 57.050781 74.222656 C 60.535156 71.175781 65.898438 71.09375 69.5 74.664062 C 72.085938 77.210938 72.828125 81.207031 71.417969 84.496094 C 69.070312 89.976562 62.480469 91.640625 57.855469 88.367188 C 54.390625 85.914062 53.199219 81.394531 54.710938 77.667969 L 27.039062 58.078125 C 26.5625 57.738281 26.164062 57.152344 26.179688 56.550781 L 25.125 38.144531 L 21.539062 41.625 C 23.5 45.054688 23.1875 49.53125 20.074219 52.632812 C 17.574219 55.152344 13.578125 55.894531 10.289062 54.488281 C 4.808594 52.136719 3.144531 45.546875 6.417969 40.925781 C 9.257812 36.914062 14.695312 35.863281 18.734375 38.519531 Z M 61.898438 82.65625 L 58.296875 80.105469 C 57.945312 81.898438 58.632812 83.8125 60.261719 84.96875 C 62.507812 86.554688 65.527344 86.039062 67.117188 83.796875 C 68.703125 81.550781 68.1875 78.53125 65.945312 76.945312 C 64.3125 75.789062 62.277344 75.777344 60.703125 76.703125 L 64.308594 79.257812 C 65.191406 79.882812 65.476562 81.207031 64.804688 82.160156 C 64.128906 83.113281 62.851562 83.328125 61.898438 82.65625 Z M 10.96875 50.066406 C 13.210938 51.65625 16.230469 51.140625 17.820312 48.894531 C 18.78125 47.535156 18.921875 45.898438 18.5 44.476562 L 15.265625 47.597656 C 14.554688 48.320312 13.421875 48.332031 12.671875 47.804688 C 12.535156 47.707031 12.46875 47.660156 12.332031 47.5625 C 11.546875 46.800781 11.558594 45.484375 12.367188 44.628906 L 15.601562 41.507812 C 13.542969 40.664062 11.144531 41.3125 9.796875 43.214844 C 8.207031 45.460938 8.722656 48.480469 10.96875 50.066406 Z M 10.96875 50.066406 " fill-opacity="1" fill-rule="nonzero"/></g></g></g><g clip-path="url(#a4c92818d4)"><g clip-path="url(#0ce6768074)"><g clip-path="url(#3e98cb2033)"><path fill="#ffffff" d="M 79.335938 57.742188 L 77.566406 56.488281 L 75.433594 60.800781 C 75.214844 61.253906 74.722656 61.519531 74.167969 61.433594 C 73.984375 61.40625 73.847656 61.308594 73.78125 61.261719 C 73.507812 61.070312 73.332031 60.738281 73.320312 60.324219 L 73.066406 50.445312 C 73.054688 50.03125 73.277344 49.574219 73.671875 49.445312 C 74.050781 49.203125 74.535156 49.238281 74.875 49.480469 L 76.574219 50.683594 L 78.707031 46.375 C 78.925781 45.917969 79.417969 45.65625 79.972656 45.738281 C 80.476562 45.894531 80.902344 46.296875 80.820312 46.851562 L 81.074219 56.726562 C 81.085938 57.144531 80.863281 57.601562 80.46875 57.726562 C 80.160156 58.019531 79.675781 57.984375 79.335938 57.742188 Z M 79.335938 57.742188 " fill-opacity="1" fill-rule="nonzero"/></g></g></g></g></g></g><g mask="url(#97b1cbe115)"><g transform="matrix(1, 0, 0, 1, 565, 435)"><g clip-path="url(#4d01a79486)"><g clip-path="url(#8e6787db2e)"><g clip-path="url(#547962fc1c)"><g clip-path="url(#20380dc94e)"><path fill="#ffffff" d="M 77.722656 45.753906 L 70.6875 4.648438 C 70.53125 3.644531 69.550781 2.804688 68.554688 2.78125 L 59.296875 2.566406 C 58.117188 2.539062 57.007812 3.511719 56.976562 4.78125 C 56.949219 5.960938 57.921875 7.074219 59.191406 7.105469 L 66.542969 7.273438 L 71.097656 33.890625 C 71.257812 34.890625 70.960938 35.882812 70.398438 36.6875 L 60.59375 48.351562 C 60.222656 48.707031 59.765625 48.96875 59.21875 48.957031 L 45.972656 48.648438 L 46.226562 37.761719 C 46.277344 35.582031 48.039062 33.898438 50.21875 33.949219 L 53.847656 34.03125 C 57.65625 34.121094 60.8125 31.109375 60.902344 27.296875 C 60.992188 23.488281 57.976562 20.328125 54.167969 20.242188 L 48.542969 20.109375 L 48.546875 19.929688 C 48.554688 19.476562 48.203125 19.011719 47.660156 19 L 45.753906 18.957031 C 44.730469 16.027344 42.0625 13.785156 38.703125 13.710938 L 35.980469 13.644531 L 35.988281 13.28125 C 36.007812 12.464844 35.386719 11.816406 34.570312 11.796875 C 33.753906 11.777344 33.105469 12.398438 33.085938 13.214844 L 33.03125 15.664062 L 27.859375 15.546875 C 27.042969 15.527344 26.390625 16.148438 26.371094 16.964844 C 26.351562 17.78125 26.972656 18.429688 27.789062 18.449219 L 32.871094 18.566406 L 32.753906 23.648438 L 27.582031 23.527344 C 26.765625 23.507812 26.113281 24.128906 26.097656 24.945312 C 26.078125 25.761719 26.699219 26.414062 27.515625 26.429688 L 32.6875 26.550781 L 32.628906 29 C 32.609375 29.816406 33.230469 30.46875 34.046875 30.488281 C 34.863281 30.503906 35.515625 29.886719 35.53125 29.070312 L 35.542969 28.707031 L 38.261719 28.769531 C 41.53125 28.84375 44.390625 26.824219 45.550781 23.855469 L 47.453125 23.898438 C 47.910156 23.910156 48.371094 23.558594 48.382812 23.011719 L 48.386719 22.832031 L 54.011719 22.960938 C 56.191406 23.011719 57.875 24.777344 57.824219 26.953125 C 57.773438 29.132812 56.007812 30.816406 53.832031 30.765625 L 50.203125 30.679688 C 46.390625 30.59375 43.234375 33.605469 43.148438 37.417969 L 42.894531 48.304688 L 29.917969 48.003906 C 29.375 47.992188 28.929688 47.617188 28.757812 47.160156 C 26.097656 40.5625 19.585938 35.597656 11.78125 35.417969 C 8.425781 35.339844 5.136719 36.171875 2.195312 37.828125 C 1.089844 38.4375 0.785156 39.792969 1.304688 40.894531 C 1.914062 41.996094 3.269531 42.300781 4.371094 41.78125 C 6.578125 40.5625 9.136719 39.894531 11.675781 39.953125 C 18.664062 40.117188 24.441406 45.425781 25.375 52.164062 L 21.019531 52.0625 C 19.953125 47.136719 15.3125 43.578125 9.847656 44.359375 C 5.933594 44.90625 2.6875 47.914062 1.78125 51.707031 C 0.273438 58.027344 4.949219 63.765625 11.121094 63.90625 C 15.746094 64.015625 19.726562 60.839844 20.824219 56.597656 L 57.75 57.457031 C 58.386719 57.46875 59.117188 57.214844 59.496094 56.679688 L 72.378906 41.273438 L 73.253906 46.648438 C 69.308594 48.371094 66.671875 52.488281 67.378906 57.226562 C 67.925781 61.050781 70.9375 64.296875 74.730469 65.203125 C 81.050781 66.710938 86.785156 62.03125 86.929688 55.863281 C 87.054688 50.507812 82.980469 46.058594 77.722656 45.753906 Z M 11.296875 56.285156 L 16.105469 56.398438 C 15.246094 58.195312 13.402344 59.421875 11.226562 59.371094 C 8.230469 59.300781 5.925781 56.886719 5.996094 53.894531 C 6.066406 50.898438 8.480469 48.59375 11.472656 48.664062 C 13.652344 48.714844 15.4375 50.027344 16.210938 51.859375 L 11.402344 51.75 C 10.222656 51.722656 9.109375 52.695312 9.082031 53.964844 C 9.050781 55.234375 10.027344 56.257812 11.296875 56.285156 Z M 77.007812 60.898438 C 74.015625 60.828125 71.710938 58.414062 71.78125 55.421875 C 71.820312 53.605469 72.765625 52.085938 74.058594 51.117188 L 74.855469 55.945312 C 75.011719 57.039062 75.992188 57.789062 76.988281 57.8125 C 77.171875 57.816406 77.261719 57.816406 77.441406 57.820312 C 78.625 57.667969 79.472656 56.507812 79.320312 55.230469 L 78.523438 50.402344 C 80.871094 51 82.546875 53.128906 82.484375 55.667969 C 82.417969 58.664062 80.003906 60.96875 77.007812 60.898438 Z M 77.007812 60.898438 " fill-opacity="1" fill-rule="nonzero"/></g></g></g><g clip-path="url(#4437218bf1)"><g clip-path="url(#b0daa981f7)"><g clip-path="url(#73d305425c)"><path fill="#ffffff" d="M 12.246094 23.171875 L 14.605469 23.226562 L 13.671875 28.378906 C 13.566406 28.921875 13.824219 29.472656 14.363281 29.757812 C 14.542969 29.851562 14.726562 29.855469 14.816406 29.859375 C 15.179688 29.867188 15.546875 29.695312 15.828125 29.335938 L 22.46875 20.867188 C 22.75 20.511719 22.851562 19.96875 22.589844 19.597656 C 22.417969 19.140625 21.972656 18.859375 21.515625 18.847656 L 19.25 18.796875 L 20.183594 13.640625 C 20.289062 13.101562 20.027344 12.550781 19.492188 12.265625 C 18.949219 12.070312 18.3125 12.144531 18.027344 12.683594 L 11.386719 21.15625 C 11.105469 21.511719 11.003906 22.054688 11.265625 22.421875 C 11.347656 22.878906 11.792969 23.160156 12.246094 23.171875 Z M 12.246094 23.171875 " fill-opacity="1" fill-rule="nonzero"/></g></g></g></g></g></g><g mask="url(#7bfaf399b9)"><g transform="matrix(1, 0, 0, 1, 672, 66)"><g clip-path="url(#591fafca37)"><g clip-path="url(#dff1e43c34)"><path fill="#ffffff" d="M 95.113281 53.449219 L 85.296875 3.128906 C 85.074219 1.902344 83.847656 0.898438 82.617188 0.898438 L 71.238281 0.898438 C 69.789062 0.898438 68.449219 2.125 68.449219 3.6875 C 68.449219 5.140625 69.675781 6.476562 71.238281 6.476562 L 80.277344 6.476562 L 86.636719 39.054688 C 86.859375 40.28125 86.523438 41.511719 85.855469 42.515625 L 74.140625 57.128906 C 73.691406 57.578125 73.136719 57.910156 72.464844 57.910156 L 56.175781 57.910156 L 56.175781 44.523438 C 56.175781 41.84375 58.296875 39.726562 60.972656 39.726562 L 65.4375 39.726562 C 70.121094 39.726562 73.917969 35.933594 73.917969 31.246094 C 73.917969 26.558594 70.121094 22.765625 65.4375 22.765625 L 58.519531 22.765625 L 58.519531 22.542969 C 58.519531 21.984375 58.074219 21.429688 57.402344 21.429688 L 55.0625 21.429688 C 53.722656 17.859375 50.375 15.179688 46.246094 15.179688 L 42.898438 15.179688 L 42.898438 14.734375 C 42.898438 13.730469 42.117188 12.949219 41.113281 12.949219 C 40.109375 12.949219 39.328125 13.730469 39.328125 14.734375 L 39.328125 17.746094 L 32.96875 17.746094 C 31.964844 17.746094 31.183594 18.527344 31.183594 19.53125 C 31.183594 20.535156 31.964844 21.316406 32.96875 21.316406 L 39.21875 21.316406 L 39.21875 27.5625 L 32.859375 27.5625 C 31.855469 27.5625 31.074219 28.34375 31.074219 29.347656 C 31.074219 30.351562 31.855469 31.132812 32.859375 31.132812 L 39.21875 31.132812 L 39.21875 34.148438 C 39.21875 35.152344 40 35.933594 41.003906 35.933594 C 42.007812 35.933594 42.789062 35.152344 42.789062 34.148438 L 42.789062 33.699219 L 46.136719 33.699219 C 50.152344 33.699219 53.609375 31.132812 54.949219 27.453125 L 57.292969 27.453125 C 57.851562 27.453125 58.40625 27.007812 58.40625 26.335938 L 58.40625 26.113281 L 65.324219 26.113281 C 68.003906 26.113281 70.121094 28.234375 70.121094 30.910156 C 70.121094 33.589844 68.003906 35.707031 65.324219 35.707031 L 60.863281 35.707031 C 56.175781 35.707031 52.382812 39.503906 52.382812 44.1875 L 52.382812 57.578125 L 36.429688 57.578125 C 35.757812 57.578125 35.203125 57.128906 34.976562 56.574219 C 31.519531 48.539062 23.375 42.625 13.78125 42.625 C 9.652344 42.625 5.636719 43.742188 2.066406 45.863281 C 0.726562 46.644531 0.390625 48.316406 1.0625 49.65625 C 1.84375 50.992188 3.515625 51.328125 4.855469 50.660156 C 7.53125 49.097656 10.65625 48.203125 13.78125 48.203125 C 22.371094 48.203125 29.625 54.5625 30.960938 62.820312 L 25.605469 62.820312 C 24.15625 56.796875 18.355469 52.554688 11.660156 53.671875 C 6.863281 54.453125 2.957031 58.246094 1.953125 62.933594 C 0.28125 70.742188 6.195312 77.660156 13.78125 77.660156 C 19.46875 77.660156 24.269531 73.640625 25.496094 68.398438 L 70.902344 68.398438 C 71.683594 68.398438 72.578125 68.0625 73.023438 67.394531 L 88.421875 48.09375 L 89.648438 54.675781 C 84.851562 56.90625 81.726562 62.039062 82.730469 67.839844 C 83.511719 72.527344 87.304688 76.433594 91.992188 77.4375 C 99.800781 79.109375 106.71875 73.195312 106.71875 65.609375 C 106.71875 59.027344 101.585938 53.671875 95.113281 53.449219 Z M 13.78125 68.289062 L 19.695312 68.289062 C 18.6875 70.519531 16.457031 72.082031 13.78125 72.082031 C 10.097656 72.082031 7.199219 69.179688 7.199219 65.496094 C 7.199219 61.816406 10.097656 58.914062 13.78125 58.914062 C 16.457031 58.914062 18.6875 60.476562 19.695312 62.707031 L 13.78125 62.707031 C 12.328125 62.707031 10.992188 63.9375 10.992188 65.496094 C 10.992188 67.058594 12.21875 68.289062 13.78125 68.289062 Z M 94.667969 72.082031 C 90.988281 72.082031 88.085938 69.179688 88.085938 65.496094 C 88.085938 63.265625 89.203125 61.371094 90.761719 60.144531 L 91.878906 66.054688 C 92.101562 67.394531 93.328125 68.289062 94.558594 68.289062 C 94.78125 68.289062 94.890625 68.289062 95.113281 68.289062 C 96.566406 68.0625 97.570312 66.613281 97.347656 65.050781 L 96.230469 59.136719 C 99.132812 59.808594 101.25 62.375 101.25 65.496094 C 101.25 69.179688 98.351562 72.082031 94.667969 72.082031 Z M 94.667969 72.082031 " fill-opacity="1" fill-rule="nonzero"/></g><path fill="#ffffff" d="M 14.003906 27.5625 L 16.902344 27.5625 L 15.898438 33.921875 C 15.789062 34.59375 16.125 35.261719 16.792969 35.597656 C 17.015625 35.707031 17.238281 35.707031 17.351562 35.707031 C 17.796875 35.707031 18.242188 35.484375 18.578125 35.039062 L 26.5 24.441406 C 26.832031 23.992188 26.945312 23.324219 26.609375 22.878906 C 26.386719 22.320312 25.828125 21.984375 25.273438 21.984375 L 22.484375 21.984375 L 23.488281 15.625 C 23.597656 14.957031 23.261719 14.289062 22.59375 13.953125 C 21.925781 13.730469 21.144531 13.839844 20.808594 14.511719 L 12.886719 25.109375 C 12.554688 25.554688 12.441406 26.226562 12.777344 26.671875 C 12.886719 27.230469 13.445312 27.5625 14.003906 27.5625 Z M 14.003906 27.5625 " fill-opacity="1" fill-rule="nonzero"/></g></g></g></svg>