<svg xmlns="http://www.w3.org/2000/svg" xmlns:xlink="http://www.w3.org/1999/xlink" width="500" zoomAndPan="magnify" viewBox="0 0 375 374.999991" height="500" preserveAspectRatio="xMidYMid meet" version="1.0"><defs><clipPath id="ac10dab415"><path d="M 45.394531 13.933594 L 329.644531 13.933594 L 329.644531 361.183594 L 45.394531 361.183594 Z M 45.394531 13.933594 " clip-rule="nonzero"/></clipPath></defs><g clip-path="url(#ac10dab415)"><path fill="#ffffff" d="M 187.496094 13.933594 L 45.488281 77.046875 L 45.488281 171.714844 C 45.488281 295.257812 147.085938 352.945312 187.496094 361.054688 C 227.902344 352.945312 329.5 295.257812 329.5 171.714844 L 329.5 77.046875 Z M 187.496094 48.480469 L 297.941406 97.570312 L 297.941406 171.714844 C 297.941406 268.5 222.441406 317.734375 187.496094 328.511719 C 152.546875 317.734375 77.046875 268.5 77.046875 171.714844 L 77.046875 97.570312 Z M 263.117188 121.144531 L 171.714844 212.519531 L 127.988281 168.789062 L 105.675781 191.101562 L 171.714844 257.140625 L 285.398438 143.425781 Z M 263.117188 121.144531 " fill-opacity="1" fill-rule="nonzero"/></g></svg>